<?xml version="1.0" encoding="UTF-8" standalone="no"?>
<!-- Generator: Adobe Illustrator 18.1.1, SVG Export Plug-In . SVG Version: 6.00 Build 0)  -->

<svg
   xmlns:dc="http://purl.org/dc/elements/1.1/"
   xmlns:cc="http://creativecommons.org/ns#"
   xmlns:rdf="http://www.w3.org/1999/02/22-rdf-syntax-ns#"
   xmlns:svg="http://www.w3.org/2000/svg"
   xmlns="http://www.w3.org/2000/svg"
   xmlns:sodipodi="http://sodipodi.sourceforge.net/DTD/sodipodi-0.dtd"
   xmlns:inkscape="http://www.inkscape.org/namespaces/inkscape"
   version="1.1"
   id="Layer_1"
   x="0px"
   y="0px"
   viewBox="0 0 386.2 445.5"
   enable-background="new 0 0 386.2 445.5"
   xml:space="preserve"
   inkscape:version="0.91 r"
   sodipodi:docname="logo-jason-over-text.svg"><metadata
     id="metadata3602"><rdf:RDF><cc:Work
         rdf:about=""><dc:format>image/svg+xml</dc:format><dc:type
           rdf:resource="http://purl.org/dc/dcmitype/StillImage" /></cc:Work></rdf:RDF></metadata><defs
     id="defs3600" /><sodipodi:namedview
     pagecolor="#ffffff"
     bordercolor="#666666"
     borderopacity="1"
     objecttolerance="10"
     gridtolerance="10"
     guidetolerance="10"
     inkscape:pageopacity="0"
     inkscape:pageshadow="2"
     inkscape:window-width="1920"
     inkscape:window-height="1056"
     id="namedview3598"
     showgrid="false"
     inkscape:zoom="1.0157127"
     inkscape:cx="92.472459"
     inkscape:cy="150.01896"
     inkscape:window-x="0"
     inkscape:window-y="24"
     inkscape:window-maximized="1"
     inkscape:current-layer="g3604" /><g
     id="g3604"
     inkscape:export-filename="/home/gschier/Workspace/insomnia/landing/static/images/mashape.png"
     inkscape:export-xdpi="93.21595"
     inkscape:export-ydpi="93.21595"><g
       id="g4460"><path
         d="M0,425.4v-53.5h5.6c1.3,0,2.2,0.6,2.5,1.9l0.7,5.5c2-2.4,4.2-4.4,6.6-6c2.4-1.6,5.3-2.3,8.5-2.3  c3.6,0,6.5,1,8.8,3c2.2,2,3.8,4.7,4.8,8.1c0.7-1.9,1.7-3.6,2.9-5c1.2-1.4,2.6-2.6,4.1-3.5c1.5-0.9,3.1-1.6,4.8-2  c1.7-0.4,3.5-0.6,5.2-0.6c2.8,0,5.3,0.5,7.5,1.3c2.2,0.9,4,2.2,5.6,3.9c1.5,1.7,2.7,3.8,3.5,6.4c0.8,2.5,1.2,5.4,1.2,8.6v34.1h-9.4  v-34.1c0-4.2-0.9-7.4-2.8-9.5c-1.8-2.2-4.5-3.3-8-3.3c-1.5,0-3,0.3-4.4,0.8c-1.4,0.5-2.6,1.4-3.7,2.4c-1.1,1.1-1.9,2.4-2.5,4  c-0.6,1.6-0.9,3.5-0.9,5.6v34.1h-9.4v-34.1c0-4.3-0.9-7.5-2.6-9.6c-1.7-2.1-4.2-3.2-7.6-3.2c-2.3,0-4.5,0.6-6.5,1.9  c-2,1.2-3.8,2.9-5.5,5.1v39.9H0z"
         id="path3494"
         fill="#0C1B23" /><path
         d="M120.5,425.4h-4.2c-0.9,0-1.6-0.1-2.2-0.4c-0.6-0.3-0.9-0.9-1.1-1.8l-1.1-5c-1.4,1.3-2.8,2.4-4.1,3.4  c-1.3,1-2.7,1.8-4.2,2.5c-1.5,0.7-3.1,1.2-4.7,1.5c-1.7,0.4-3.5,0.5-5.6,0.5c-2.1,0-4-0.3-5.8-0.9c-1.8-0.6-3.4-1.5-4.7-2.6  c-1.4-1.2-2.4-2.6-3.2-4.4c-0.8-1.8-1.2-3.9-1.2-6.3c0-2.1,0.6-4.2,1.7-6.1c1.2-2,3-3.7,5.6-5.2c2.6-1.5,6-2.8,10.2-3.7  c4.2-1,9.3-1.4,15.4-1.4v-4.2c0-4.2-0.9-7.3-2.7-9.5c-1.8-2.1-4.4-3.2-7.9-3.2c-2.3,0-4.2,0.3-5.8,0.9c-1.6,0.6-2.9,1.2-4.1,1.9  c-1.1,0.7-2.1,1.4-3,2c-0.8,0.6-1.6,0.9-2.5,0.9c-0.6,0-1.2-0.2-1.7-0.5c-0.5-0.3-2.8-2.5-2.8-4.2c0-1.8,6.1-5,9.6-6.4  c3.4-1.4,7.2-2.1,11.3-2.1c3,0,5.7,0.5,8,1.5c2.3,1,4.3,2.3,5.8,4.1c1.6,1.8,2.8,3.9,3.6,6.4c0.8,2.5,1.2,5.3,1.2,8.2V425.4z   M96.1,419.6c1.6,0,3.1-0.2,4.5-0.5c1.4-0.3,2.7-0.8,3.9-1.4c1.2-0.6,2.4-1.3,3.5-2.2c1.1-0.9,2.2-1.9,3.2-3v-11  c-4.3,0-8,0.3-11.1,0.8c-3,0.5-5.5,1.3-7.4,2.1c-1.9,0.9-3.3,1.9-4.1,3.1c-0.8,1.2-1.3,2.6-1.3,4c0,1.4,0.2,2.6,0.7,3.7  c0.5,1,1.1,1.9,1.8,2.5c0.8,0.7,1.7,1.1,2.8,1.4C93.7,419.5,94.9,419.6,96.1,419.6"
         id="path3496"
         fill="#0C1B23" /><path
         d="M159.4,381.8c-0.5,0-1.1-0.2-1.8-0.6c-0.7-0.4-1.5-0.8-2.4-1.3c-1-0.5-2.1-0.9-3.5-1.3  c-1.3-0.4-2.9-0.6-4.7-0.6c-1.6,0-3,0.2-4.3,0.6c-1.3,0.4-2.3,1-3.2,1.7c-0.9,0.7-1.6,1.5-2.1,2.5c-0.5,0.9-0.7,1.9-0.7,3  c0,1.4,0.4,2.5,1.2,3.4c0.8,0.9,1.8,1.7,3.2,2.4c1.3,0.7,2.8,1.3,4.4,1.8c1.7,0.5,3.4,1.1,5.1,1.6c1.7,0.6,3.4,1.2,5.1,1.9  c1.7,0.7,3.1,1.6,4.4,2.6c1.3,1.1,2.3,2.3,3.1,3.9c0.8,1.5,1.2,3.4,1.2,5.5c0,2.5-0.5,4.8-1.3,6.8c-0.9,2.1-2.2,3.9-3.9,5.5  c-1.7,1.5-3.8,2.7-6.3,3.6c-2.5,0.9-5.4,1.3-8.7,1.3c-3.7,0-7.1-0.6-10.1-1.8c-3-1.2-7.7-3.2-7.7-4.7c0-1.5,2.2-3.6,2.2-3.6  c0.3-0.5,0.6-0.8,1-1.1c0.4-0.3,0.9-0.4,1.5-0.4c0.6,0,1.3,0.3,2,0.7c0.7,0.5,1.6,1,2.5,1.6c1,0.6,2.2,1.2,3.7,1.6  c1.4,0.5,3.2,0.8,5.4,0.8c1.8,0,3.4-0.3,4.8-0.7c1.4-0.5,2.5-1.1,3.4-1.9c0.9-0.8,1.6-1.7,2-2.8c0.4-1,0.6-2.2,0.6-3.4  c0-1.5-0.4-2.7-1.2-3.7c-0.8-1-1.8-1.8-3.1-2.5c-1.3-0.7-2.8-1.3-4.5-1.8c-1.7-0.5-3.4-1-5.1-1.6c-1.7-0.6-3.4-1.2-5.1-1.9  c-1.7-0.7-3.2-1.6-4.5-2.7c-1.3-1.1-2.4-2.4-3.1-4c-0.8-1.6-1.2-3.6-1.2-5.9c0-2,0.4-4,1.3-5.9c0.9-1.9,2.1-3.5,3.7-5  c1.6-1.4,3.6-2.6,6-3.4c2.3-0.8,5-1.3,8.1-1.3c3.5,0,6.7,0.6,9.5,1.7c2.8,1.1,7.2,2.8,7.2,4.6S160.3,381.8,159.4,381.8"
         id="path3498"
         fill="#0C1B23" /><path
         d="M170.2,425.4v-73h9.4v26.7c2.3-2.4,4.8-4.4,7.6-5.9c2.8-1.5,6-2.2,9.6-2.2c2.9,0,5.5,0.5,7.7,1.5  c2.2,1,4.1,2.3,5.6,4.1c1.5,1.8,2.6,3.9,3.4,6.4c0.8,2.5,1.2,5.3,1.2,8.3v34.1h-9.4v-34.1c0-4.1-0.9-7.2-2.8-9.4  c-1.8-2.3-4.7-3.4-8.5-3.4c-2.8,0-5.4,0.7-7.8,2c-2.4,1.3-4.6,3.2-6.7,5.4v39.4H170.2z"
         id="path3500"
         fill="#0C1B23" /><path
         d="M260.9,425.4c-1.5,0-2.7-0.2-3.5-0.6c-0.8-0.4-1.4-1.3-2-2.6l-1.2-3c-1.4,1.2-2.7,2.2-4,3.1  c-1.3,0.9-2.6,1.6-3.9,2.3c-1.4,0.6-2.8,1.1-4.3,1.4c-1.5,0.3-3.2,0.4-5.1,0.4c-2.5,0-4.8-0.3-6.8-1c-2-0.7-3.8-1.6-5.2-2.9  c-1.4-1.3-2.5-2.9-3.3-4.7c-0.8-1.9-1.2-4.1-1.2-6.5c0-1.9,0.5-3.9,1.5-6c1-2,2.7-3.9,5.1-5.6c2.4-1.7,5.7-3.1,9.8-4.2  c4.1-1.1,9.3-1.7,15.6-1.7v-2.3c0-3.2-0.7-5.6-2-7c-1.3-1.4-3.2-2.2-5.6-2.2c-1.9,0-3.5,0.2-4.7,0.6c-1.2,0.4-2.3,0.9-3.3,1.4  c-0.9,0.5-1.9,1-2.8,1.4c-0.9,0.4-2,0.7-3.3,0.7c-1.1,0-2.1-0.3-2.9-0.8c-0.8-0.5-4.8-4.9-4.8-7.2c0-2.3,7-5.1,11-6.5  c4-1.4,8.4-2.1,13-2.1c3.3,0,6.3,0.5,8.9,1.6c2.7,1.1,4.9,2.6,6.8,4.5c1.8,1.9,3.2,4.2,4.2,6.9c1,2.6,1.5,5.5,1.5,8.6v34.2H260.9z   M242.1,415.4c2.1,0,4-0.4,5.5-1.1c1.6-0.8,3.2-1.9,4.8-3.6v-7.5c-3.3,0-6,0.2-8.1,0.6c-2.1,0.4-3.8,1-5,1.6  c-1.2,0.6-2.1,1.4-2.6,2.2c-0.5,0.8-0.7,1.7-0.7,2.7c0,1.9,0.5,3.2,1.5,4C238.7,415,240.2,415.4,242.1,415.4"
         id="path3502"
         fill="#6ABD46" /><path
         d="M276.6,445.5v-74.9h10.1c1,0,1.9,0.2,2.6,0.7c0.7,0.4,1.2,1.1,1.4,2.1l1.2,4c1.1-1.2,2.2-2.2,3.4-3.1  c1.2-1,2.5-1.8,3.9-2.5c1.4-0.7,2.9-1.2,4.5-1.6c1.6-0.4,3.3-0.6,5.2-0.6c2.9,0,5.5,0.6,7.9,1.9c2.4,1.3,4.5,3.1,6.3,5.5  c1.8,2.4,3.2,5.3,4.1,8.8c1,3.5,1.5,7.4,1.5,11.8c0,4.1-0.6,7.9-1.7,11.4c-1.1,3.5-2.7,6.5-4.8,9.1c-2.1,2.6-4.5,4.6-7.4,6  c-2.9,1.4-6,2.2-9.5,2.2c-2.8,0-5.2-0.4-7.2-1.2c-1.9-0.8-3.7-1.9-5.3-3.3v23.8H276.6z M303.3,382.1c-1.2,0-2.3,0.1-3.2,0.3  c-1,0.2-1.9,0.6-2.7,1c-0.8,0.4-1.6,1-2.3,1.6c-0.7,0.7-1.4,1.4-2.1,2.3v23.2c1.2,1.4,2.6,2.3,4,2.9c1.4,0.6,3,0.8,4.6,0.8  c1.5,0,2.9-0.3,4.1-0.9c1.3-0.6,2.4-1.6,3.3-2.9c0.9-1.3,1.7-3,2.2-5.2c0.5-2.1,0.8-4.7,0.8-7.7c0-2.9-0.2-5.3-0.6-7.3  c-0.4-2-1-3.6-1.8-4.8c-0.7-1.2-1.7-2.1-2.7-2.6C305.8,382.3,304.6,382.1,303.3,382.1"
         id="path3504"
         fill="#6ABD46" /><path
         d="M361.6,369.8c3.6,0,6.9,0.6,9.9,1.7c3,1.1,5.6,2.8,7.8,4.9c2.2,2.1,3.9,4.8,5.1,7.9  c1.2,3.1,1.8,6.6,1.8,10.6c0,1.2,0,2.3-0.2,3c-0.1,0.8-0.3,1.4-0.6,1.9c-0.3,0.5-0.7,0.8-1.1,1c-0.5,0.2-1.1,0.3-1.8,0.3h-31.6  c0.5,4.6,1.9,7.9,4.2,10c2.3,2.1,5.2,3.1,8.7,3.1c1.9,0,3.5-0.2,4.9-0.7c1.4-0.5,2.6-1,3.7-1.5c1.1-0.6,2.1-1.1,2.9-1.6  c0.9-0.4,1.8-0.7,2.8-0.7c1.3,0,7.4,2.1,7.4,5.7c0,3.7-3.2,5.1-5.1,6.3c-1.9,1.2-3.9,2.2-6,2.9c-2.1,0.7-4.1,1.2-6.2,1.4  c-2.1,0.3-4,0.4-5.9,0.4c-3.8,0-7.4-0.6-10.8-1.9c-3.4-1.2-6.3-3.1-8.8-5.6c-2.5-2.5-4.5-5.5-6-9.2c-1.5-3.6-2.2-7.9-2.2-12.8  c0-3.7,0.6-7.1,1.9-10.4c1.2-3.3,3-6.1,5.4-8.6c2.3-2.5,5.2-4.4,8.5-5.9C353.6,370.5,357.4,369.8,361.6,369.8 M361.9,381  c-3.1,0-5.6,0.9-7.3,2.7c-1.8,1.8-2.9,4.3-3.5,7.7h20.4c0-1.3-0.1-2.6-0.5-3.8c-0.3-1.2-0.9-2.3-1.6-3.3c-0.8-1-1.8-1.8-3-2.4  C365.1,381.3,363.6,381,361.9,381"
         id="path3506"
         fill="#6ABD46" /></g><g
       id="g4469"><polygon
         fill="#ABB3C9"
         points="142.5,153.5 142.5,153.5 142.5,153.5 "
         id="polygon3490" /><path
         fill="#3958A7"
         d="M245.3,147.1l0.1-0.6L245.3,147.1z"
         id="path3492" /><path
         fill="#B4BBCC"
         d="M122.6,114.4c-1.1-2.4-3.4-4.1-5.6-4.1h0c-0.2,0-5.5,0.6-5.2,10.9c0.3,9.9,7,10.2,7.8,10.2l0.6,0l0-0.5  c0.1-1.6,2.3-5.8,3.1-7.3l0.4-0.7l-2.4-0.2C123.3,120,123.8,117,122.6,114.4"
         id="path3508" /><path
         fill="#B4BBCC"
         d="M274.8,110.3c-2.1,0-4.4,1.7-5.5,4.1c-1.2,2.6-0.7,5.6,1.3,8.3l-2.4,0.2l0.4,0.7c0.8,1.5,3,5.7,3.1,7.3  l0,0.5l0.6,0c0.8,0,7.5-0.3,7.8-10.2C280.3,110.9,275.1,110.4,274.8,110.3"
         id="path3510" /><path
         fill="#B4BBCC"
         d="M226.1,184.4c11-4.6,18.7-11.7,21.4-20c9.5-29.6-2.4-28.3-8.5-26.6c1.1-2.9,2.4-6.1,3.5-8.4l0.3-0.5  c3.4-5.3,21.1-8.8,12.6-21.3c-8.8-12.8-26.5-23.7-41-20.7c-14.5,3-15.8,0.7-31.5,1.1c-15.7,0.5-29-5.5-33.9,4.5  c-4.8,10-13.9,9.6-13.1,26.6c0.9,17,19.1,19,19.1,19l-0.6,0.4c-0.1,0.1-15,12.1-11.6,25.9c4.3,17.7,29.4,25.7,52.2,25.7  c-0.7,0.2-1.1,0.2-1.1,0.2l-60.2-1.6l-8.5,15.9c0,0,16.2,28.5,20,34.3c3.8,5.8,16.2,22.2,27.1,26.3c11,4.1,18.9,11.3,37.6,2.7  c18.6-8.5,30.5-18.1,38-29.9c7.5-11.8,27-23.3,18.3-33.4C259.2,196.2,237.1,186.5,226.1,184.4"
         id="path3512" /><path
         fill="#B4BBCC"
         d="M324.3,314.7c-1.2-2-2.4-3.1-3.6-3.2c-1.2-0.1-2,0.8-2,0.8l-3.2,3.6l1.3-4.7c4-14.8,0.1-22.6-0.6-23.8  c-1.7-0.9-13.2-6.7-37.2-6.7c-10.3,13.4-6.2,34.1-3.6,37c2.3,2.5,4.9,0.9,5,0.8l1.1-0.7l0.6,1.1c0.1,0.2,2.6,4.5,9.7,4.5  c7,0,8.5-3.8,8.5-3.9l0.5-1.5l1.3,0.9c8.6,6.4,16.5,5.6,20.6,2C324.8,319,325.4,316.6,324.3,314.7"
         id="path3514" /><path
         fill="#B4BBCC"
         d="M181.3,299.3c-1.1,0.6-3.4,1.5-5.4,1.5c-0.6,0-1.2-0.1-1.8-0.3c-2.4-1-16.6-4.1-24.4-4.2h-0.1  c-1,0.2-14.1,2.1-16.5,10.7c-0.5,1.9-0.8,4.3,0.7,5.4c1.7,1.1,5.2,0.4,7.6-1.4l1.2-0.9l0.6,1.4c0,0.1,1.1,2.2,3.4,2.2  c2.8,0,6.3-2,6.3-2l1.2-0.7l0.5,1.3c0,0.1,1,2.4,5.1,2.4c4.5,0,12-2.8,12.1-2.8l0.5-0.2l0.5,0.3c0,0,2.1,1.2,7.6,1.2  c2.3,0,4.3-1.5,5.1-3.8C186.6,306.2,185.1,302.5,181.3,299.3"
         id="path3516" /><path
         fill="#ABB3C9"
         d="M85.8,282.5l-0.3-1c-1.2,0.3-2.3,0.6-3.3,0.9l0.4,1.2L85.8,282.5z"
         id="path3518" /><polygon
         fill="#ABB3C9"
         points="121.7,133.2 121.7,133.1 121.7,133.1 "
         id="polygon3520" /><path
         fill="#B4BBCC"
         d="M75.9,287.4c-0.7,1.3-4.6,9.1-0.6,23.8l1.3,4.7l-3.2-3.6c0,0-0.9-0.9-2.1-0.8c-1.2,0.1-2.4,1.2-3.5,3.2  c-1.1,1.9-0.5,4.3,1.7,6.2c4.1,3.6,12.1,4.5,20.6-2l1.3-1l0.5,1.5c0.1,0.2,1.5,3.9,8.5,3.9c7.2,0,9.6-4.3,9.7-4.5l0.6-1.1l1.1,0.7  c0.3,0.2,2.7,1.6,5-0.8c2.7-2.9,6.7-23.6-3.6-37C89,280.8,77.6,286.5,75.9,287.4"
         id="path3522" /><path
         fill="#B4BBCC"
         d="M242.4,296.3L242.4,296.3c-7.8,0-22,3.2-24.4,4.2c-0.5,0.2-1.2,0.3-1.8,0.3c-2,0-4.3-1-5.4-1.5  c-3.8,3.2-5.4,7-4.3,10.1c0.8,2.2,2.8,3.8,5.1,3.8c5.5,0,7.5-1.2,7.6-1.2l0.5-0.3l0.6,0.2c0.1,0,7.6,2.8,12.1,2.8  c4.1,0,5.1-2.3,5.1-2.4l0.5-1.2l1.1,0.7c0,0,3.5,2,6.3,2c2.4,0,3.4-2.2,3.4-2.2l0.6-1.3l1.2,0.9c2.4,1.9,6,2.5,7.6,1.4  c1.6-1.1,1.3-3.5,0.7-5.4C256.5,298.4,243.5,296.5,242.4,296.3"
         id="path3524" /><path
         fill="#99A0BA"
         d="M137,301c0,0-4.5,8.8,5.9,5.5c0,0,2.9,5.9,12.3,0.7c0,0,10.8,5.4,17.5,1.3c0,0,10.7,6.2,14.4-1.8  c0,0-0.5,7.4-6.2,7.9c-5.7,0.4-8.7-1.4-8.7-1.4s-7.4,2.8-11.9,2.9c-4.5,0.1-7.1-3.1-7.1-3.1s-3.6,1.5-6.9,1.7  c-3.2,0.1-4.1-2.4-4.1-2.4s-5.7,3.6-8.6,1.6C130.8,311.8,130.9,302.9,137,301"
         id="path3526" /><path
         fill="#99A0BA"
         d="M76,315.3c0,0,10.8,4.6,14.9-2c0,0,4.9,5.9,10,5.9c5.1,0,9.4-5.9,9.4-5.9s8.4,3.4,9.2-6.6  c0.8-10,1.1,1.5,1.1,1.5s-2.6,10.6-5.9,11.7c-3.3,1-3.4,0-3.4,0s-4.9,5.1-11.9,4.9c-7-0.1-8.6-4.1-8.6-4.1s-6.9,5.2-15.4,4.1  c-8.5-1.1-10.8-5.5-9.6-9.3c1.2-3.8,3.6-5,5.3-5C73,310.6,76,315.3,76,315.3"
         id="path3528" /><path
         fill="#99A0BA"
         d="M254.8,301c0,0,4.5,8.8-5.9,5.5c0,0-2.9,5.9-12.3,0.7c0,0-10.8,5.4-17.5,1.3c0,0-10.7,6.2-14.4-1.8  c0,0,0.5,7.4,6.2,7.9c5.7,0.4,8.6-1.4,8.6-1.4s7.4,2.8,11.9,2.9c4.5,0.1,7.1-3.1,7.1-3.1s3.6,1.5,6.9,1.7c3.2,0.1,4.1-2.4,4.1-2.4  s5.7,3.6,8.6,1.6C261,311.8,260.9,302.9,254.8,301"
         id="path3530" /><path
         fill="#99A0BA"
         d="M315.8,315.3c0,0-10.8,4.6-14.9-2c0,0-4.9,5.9-10,5.9c-5.1,0-9.5-5.9-9.5-5.9s-8.3,3.4-9.2-6.6  c-0.8-10-1.1,1.5-1.1,1.5s2.6,10.6,5.9,11.7c3.3,1,3.4,0,3.4,0s4.9,5.1,11.9,4.9c7-0.1,8.6-4.1,8.6-4.1s6.9,5.2,15.4,4.1  c8.5-1.1,10.8-5.5,9.6-9.3c-1.2-3.8-3.6-5-5.3-5C318.8,310.6,315.8,315.3,315.8,315.3"
         id="path3532" /><path
         fill="#99A0BA"
         d="M166.2,250.1c0,0,9-12.5,29.9-12.5c20.8,0,26.6,13.5,23.3,17.4c-3.2,4,1.5,8.2,13.2-2.1  c11.7-10.2,21-35.6,21-35.6s-16,12-33.2,12c-17.2,0-14.8-12.3-12.7-15.8c0,0,12.3,9.2,14.4-1.5l-20-5.9c0,0-10.3,5-13.8,0.1  l-17.8,7.2c0,0,1.1,3.2,7.7,1.8c6.6-1.5,8.2-3,8.2-3s8.7,26.7-36,18c-24.6-4.8,11.2,23.7,11.2,23.7L166.2,250.1z"
         id="path3534" /><polygon
         fill="#ABB3C9"
         points="119.1,133.2 119.1,133.2 119.1,133.3 "
         id="polygon3536" /><path
         fill="#B4BFD1"
         d="M231.7,152.2c0,11.6-16.4,21.1-36.7,21.1c-20.2,0-36.7-9.4-36.7-21.1c0-11.6,16.4-21.1,36.7-21.1  C215.3,131.2,231.7,140.6,231.7,152.2"
         id="path3538" /><path
         fill="#ABB3C9"
         d="M112.6,123.7c0.2,1.4,0.5,2.2,0.8,2.7c-0.2-0.5-0.5-1.1-0.6-1.7L112.6,123.7"
         id="path3540" /><path
         fill="#D6DBE6"
         d="M209.8,130.1c-4.5-3.7-14.5,1-14.5,1H195h-0.4c0,0-10.4-5.2-14.5-1c-4.5,4.6-1.5,9.3-1.5,9.3s5.8,2,9.3,2  c2.8,0,5.9-1.2,7-1.7c1.2,0.5,4.2,1.7,7,1.7c3.6,0,9.3-2,9.3-2S214.7,134.1,209.8,130.1"
         id="path3542" /><path
         fill="#525365"
         d="M203.4,139.2c2.3,0,4.2-1.3,4.2-2.8c0-1.6-1.9-2.8-4.2-2.8c-2.3,0-4.2,1.3-4.2,2.8  C199.2,137.9,201.1,139.2,203.4,139.2"
         id="path3544" /><path
         fill="#525365"
         d="M182.9,136.3c0,1.6,1.9,2.8,4.2,2.8c2.3,0,4.2-1.3,4.2-2.8c0-1.6-1.9-2.8-4.2-2.8  C184.8,133.5,182.9,134.8,182.9,136.3"
         id="path3546" /><path
         fill="#3958A7"
         d="M281.5,122.9l-0.1,0.8L281.5,122.9z"
         id="path3548" /><path
         fill="#0B0B0B"
         d="M172.8,113.6c-1.7-0.3-3.4,0.3-4.8,1.6c-1.3,1.2-2.2,2.9-2.5,4.9c-0.5,3.8,1.6,7.4,4.8,8.1l0.4,0.1  c3.5,0.5,6.8-2.4,7.3-6.4C178.6,117.8,176.3,114.1,172.8,113.6 M173.4,125.7c-0.1,0.1-1.1,1.2-2.8,0.5l-0.8-0.4l-0.3-0.2l-0.1-0.1  l-0.4-0.3l-0.1,0l0,0l-0.2-0.2c-1.8-2-1.3-4.9-1.3-4.9l0.1,0.5C168.8,124.5,173.4,125.6,173.4,125.7L173.4,125.7 M175.8,119.1  c-0.4,0.5-1.1,0.8-1.8,0.6c-1-0.2-1.6-1.2-1.4-2.3c0.1-0.6,0.6-1.1,1.1-1.3l1.1-0.1l1,0.5l0.2,0.3c0.3,0.4,0.4,0.9,0.2,1.4  L175.8,119.1"
         id="path3550" /><path
         fill="#525365"
         d="M167.6,120.4l-0.1-0.5c0,0-0.5,2.9,1.3,4.9l0.2,0.2l0,0l0.1,0l0.4,0.3l0.1,0.1l0.3,0.2l0.8,0.4  c1.7,0.7,2.7-0.4,2.8-0.5l0,0C173.4,125.6,168.8,124.5,167.6,120.4"
         id="path3552" /><path
         fill="#ABB3C9"
         d="M176.3,118.3c-0.3,1.2-1.5,2-2.8,1.7c-1.3-0.3-2-1.5-1.8-2.7c0.3-1.2,1.5-2,2.8-1.7  C175.8,115.8,176.6,117.1,176.3,118.3"
         id="path3554" /><path
         fill="#99A0BA"
         d="M195.2,105c0,0,36.9-15.5,48.8,10.8c0,0,1-17.1-18.1-22c-12.4-3.2-30.6,7.2-30.6,7.2c0,0-18.2-10.4-30.6-7.2  c-19.1,4.9-18.1,22-18.1,22C158.4,89.5,195.2,105,195.2,105"
         id="path3556" /><path
         fill="#0B0B0B"
         d="M225.5,119.2c-1.1-3.9-4.7-6.4-8.1-5.4c-1.7,0.5-3,1.7-3.8,3.4c-0.7,1.7-0.9,3.6-0.4,5.5  c1,3.7,4.4,6.2,7.6,5.5l0,0l0.4-0.1c1.7-0.5,3-1.7,3.8-3.4C225.9,123,226,121.1,225.5,119.2 M222.7,124.6c-0.1,0.2-0.6,1.5-2.4,1.5  l-0.9-0.1v0l0,0l-0.3,0l-0.1,0l-0.3-0.1l0,0c-2.9-0.9-3.7-4.2-3.7-4.2l0.3,0.4C218.1,125.4,222.8,124.6,222.7,124.6L222.7,124.6   M222.4,117.6c-0.2,0.6-0.7,1.2-1.5,1.3c-1,0.2-2-0.5-2.2-1.5c-0.1-0.6,0.1-1.3,0.5-1.7l1-0.5c0.5-0.1,1,0,1.4,0.3  c0.4,0.3,0.7,0.7,0.8,1.2L222.4,117.6"
         id="path3558" /><path
         fill="#525365"
         d="M215.4,122.1l-0.3-0.4c0,0,0.8,3.3,3.7,4.2l0,0l0.3,0.1l0.1,0l0.3,0l0,0v0l0.9,0c1.8,0,2.3-1.4,2.4-1.5l0,0  C222.8,124.6,218.1,125.4,215.4,122.1"
         id="path3560" /><path
         fill="#ABB3C9"
         d="M222.6,116.9c0.3,1.2-0.6,2.4-1.8,2.7c-1.3,0.2-2.5-0.6-2.7-1.8c-0.2-1.2,0.6-2.4,1.9-2.7  C221.2,114.9,222.4,115.7,222.6,116.9"
         id="path3562" /><path
         fill="#525365"
         d="M130,173.2l11-3.2c0,0,21.6,19.9,53.5,19.9c32,0,59.6-18.3,59.6-18.3l5.4,11.2c0,0,6.9,11.6-67,11.6  C118.7,194.6,130,173.2,130,173.2"
         id="path3564" /><path
         fill="#99A0BA"
         d="M177.4,136h-0.6c-0.3,0-0.9,0.1-1.6,0.1l-1.1,0.2c-0.4,0.1-0.8,0.2-1.2,0.3c-0.4,0.1-0.8,0.2-1.2,0.4  c-0.4,0.1-0.9,0.3-1.3,0.5c-0.4,0.2-0.9,0.3-1.3,0.5c-0.4,0.2-0.8,0.4-1.2,0.6l-1.1,0.6l-0.9,0.6c-1.2,0.8-1.9,1.3-1.9,1.3  s0.7-0.6,1.7-1.6l0.9-0.8l1-0.7l1.1-0.8c0.4-0.3,0.8-0.5,1.2-0.7c0.4-0.2,0.8-0.5,1.2-0.7c0.4-0.2,0.9-0.4,1.3-0.6  c0.4-0.2,0.8-0.4,1.2-0.5c0.4-0.1,0.8-0.3,1.1-0.4c0.7-0.2,1.3-0.4,1.8-0.4c0.5-0.1,0.7-0.1,0.7-0.1L177.4,136z"
         id="path3566" /><path
         fill="#D6DBE6"
         d="M170.1,161.9c0,0,9.7,3.6,25.5,3.6c15.8,0,25.3-3.6,25.3-3.6s-8.5,6.9-25.4,6.9  C178.6,168.7,170.1,161.9,170.1,161.9"
         id="path3568" /><path
         fill="#99A0BA"
         d="M212.5,133.6c0,0,0.2,0,0.7,0.1l0.8,0.2c0.3,0.1,0.6,0.2,1,0.2c0.3,0.1,0.7,0.3,1.2,0.4  c0.4,0.1,0.8,0.2,1.3,0.5c0.4,0.2,0.9,0.4,1.3,0.6c0.4,0.2,0.9,0.4,1.3,0.7c0.4,0.3,0.8,0.5,1.3,0.8c0.4,0.2,0.8,0.6,1.1,0.8  l1.1,0.8l0.9,0.8c1,1,1.7,1.7,1.7,1.7s-0.8-0.6-2-1.4l-0.9-0.6l-1.1-0.6c-0.4-0.2-0.8-0.4-1.2-0.6c-0.4-0.2-0.9-0.4-1.3-0.5  c-0.4-0.2-0.9-0.4-1.3-0.5c-0.4-0.1-0.9-0.3-1.3-0.4c-0.4-0.1-0.8-0.2-1.2-0.3c-0.4-0.1-0.8-0.2-1.1-0.2l-0.9-0.1l-0.7,0h-0.6  L212.5,133.6z"
         id="path3570" /><path
         fill="#525365"
         d="M178.7,130.7l-0.1,0.1l-0.1,0.1l-0.3,0.4c-0.4,0.5-0.7,1.2-0.9,1.8c-0.2,0.6-0.3,1.2-0.3,1.8  c0,0.6,0,1.1,0.1,1.6c0.2,1,0.6,1.7,0.9,2.2c0.3,0.4,0.5,0.7,0.5,0.7c0-0.1-0.2-0.4-0.3-0.8c-0.2-0.5-0.4-1.3-0.5-2.2  c0-0.5,0-1,0-1.4c0.1-0.5,0.2-1,0.5-1.5c0.2-0.5,0.5-1,0.9-1.5l0.3-0.4l0.1-0.1l0.1-0.1l0.2-0.1l0.7-0.6l0.8-0.5l0.9-0.4l0.9-0.3  l0.9-0.2l0.9-0.1l0.9,0c0.6,0,1.1,0,1.7,0c1,0.1,1.9,0.2,2.5,0.3c0.6,0.1,1,0.2,1,0.2s-0.3-0.2-0.9-0.3c-0.6-0.2-1.4-0.5-2.5-0.7  c-0.5-0.1-1.1-0.2-1.8-0.2c-0.6,0-1.3-0.1-2,0l-1,0.1l-1.1,0.3l-1,0.4l-1,0.6l-0.8,0.7L178.7,130.7z"
         id="path3572" /><path
         fill="#525365"
         d="M212.8,134L212.8,134l-0.3-0.9c-0.2-0.6-0.5-1.3-0.9-1.8l-0.3-0.4l-0.1-0.1l-0.1-0.1l-0.2-0.2l-0.8-0.7  l-0.9-0.6l-1-0.4l-1.1-0.3l-1.1-0.1c-0.7-0.1-1.3,0-2,0c-0.6,0-1.2,0.1-1.7,0.2c-1.1,0.2-1.9,0.5-2.5,0.7c-0.6,0.2-0.9,0.3-0.9,0.3  l1-0.2c0.6-0.1,1.5-0.2,2.5-0.3c0.5,0,1.1-0.1,1.7,0l0.9,0l1,0.1l0.9,0.2l0.9,0.3l0.9,0.4l0.8,0.5l0.7,0.6l0.2,0.1l0.1,0.1l0.1,0.1  l0.3,0.4c0.4,0.5,0.6,1,0.9,1.5c0.2,0.5,0.4,1,0.5,1.5c0.1,0.5,0.1,1,0.1,1.5c-0.1,0.9-0.3,1.7-0.4,2.2c-0.2,0.5-0.3,0.7-0.3,0.8  c0-0.1,0.3-0.3,0.5-0.7c0.3-0.5,0.7-1.2,0.9-2.2c0.1-0.5,0.2-1,0.2-1.6L212.8,134L212.8,134z"
         id="path3574" /><path
         fill="#525365"
         d="M236.2,153.1l-0.3-1l-0.5-0.9l-0.7-0.8c-0.5-0.5-1.1-0.7-1.6-0.9c-0.5-0.2-0.9-0.2-1.2-0.2l-0.5,0.1  c0,0,0.6,0.4,1.2,1l0.5,0.5l0.5,0.6l0.1,0.1c-1.8,1.9-13.1,12.8-38,12.8c-24.7,0-36.3-11-38.1-12.8l0-0.1l0.5-0.6l0.5-0.5  c0.6-0.6,1.2-1,1.2-1l-0.5,0c-0.3,0-0.7,0-1.2,0.2c-0.5,0.2-1,0.5-1.5,0.9l-0.7,0.8l-0.5,0.9l-0.3,1l-0.1,1l0,0.9l0.2,0.8l0.2,0.6  l0.2,0.5l0.2,0.4l0.1-0.5c0.1-0.3,0.1-0.7,0.2-1.1l0.1-0.7l0.2-0.8l0.2-0.7c3.2,3.1,15.1,12.9,39.1,12.9c24.2,0,35.9-9.7,39.1-12.9  l0.2,0.7l0.2,0.8l0.1,0.7c0.1,0.5,0.2,0.8,0.2,1.1l0.1,0.4l0.2-0.4l0.2-0.5l0.2-0.6l0.2-0.8l0-0.9L236.2,153.1"
         id="path3576" /><path
         fill="#12313F"
         d="M315.5,193.9c2.7-30.5-11.6-49.5-25-60c-3.8-3-6.8-4.6-10.1-6.4c0.7-1.6,1.2-3.6,1.3-6.2  c0.3-11.9-6.4-12.6-6.7-12.6h-0.1h-0.1c-0.5,0-1,0.1-1.5,0.2v-1.1h0c1.1-8.8,1.6-16.9,1.4-24.2c0-52.3-43.2-70.7-43.2-70.7v4.5  c-7.6-6.4-14.9-11.3-14.9-11.3v7.4c-1.4-0.9-2.8-1.7-4.1-2.5c-3.8-2.6-9.3-6.8-12.1-10.1l-3.8,11l-2.9-9.9  c-1.1,3.5-10.8,9.9-10.8,9.9c0-4.6-1.3-11.9-1.3-11.9l-19.4,16.4l-1.8-6c0,0-9.8,6.6-15.6,13.8v-3.5c0,0-29,20.2-29,60.9v0.2  c-0.3,5.6-0.2,11.5,0.3,18c0.3,7.5,0.8,7.9,0.8,7.9v0.9c-0.3,0-7,0.7-6.7,12.6c0.1,2.4,0.5,4.4,1.2,6c-3.2,1.9-6.5,4.1-9.8,6.7  c-13.4,10.5-27.7,29.4-25,60c-2.3,3.2-17.9,24.8-17.4,46.3c0.5,22.6,12.1,42.7,14.6,46.4l2.2,0.8c1.7-0.9,13.1-6.7,37.2-6.7  c3.2,4.2,5,9.1,5.9,13.9h2.3c-1-5.5-3-11-6.6-15.5l-0.1-0.8c-0.8-6.2-3.8-37.1,12.1-52.8c0.4,3,1.5,8.8,3.8,15.1  c4,10.8,13.3,18.6,20.7,22.6c-3.6,1.3-8.8,4.6-8.8,12.5c0,8.6,2,15.7,4.7,18.8l12.1-2.7l22.9,5.4c-0.1-0.1-0.2-0.3-0.4-0.7  c-0.3-0.5-4.1-1.4-4.8-2.9c0.1-2,4.8-16.3,19-16.3c14.3,0,17.8,14.3,17.9,16.3c-0.8,1.5-3.4,2.4-3.7,2.9c-0.2,0.4-0.4,0.6-0.4,0.7  h0.2l22.9-5.4l11.9,2.7c2.7-3.1,4.7-10.2,4.7-18.7c0-7.8-5.2-11.1-8.7-12.5c7.5-4.1,16.7-11.8,20.7-22.6c2.3-6.3,3.4-12.1,3.8-15.1  c15.8,15.7,12.9,46.6,12.1,52.8l-0.1,0.8c-3.6,4.6-5.6,10.1-6.6,15.5h2.3c0.9-4.9,2.7-9.7,5.9-13.9c24.1,0.1,35.5,5.8,37.2,6.7l0,0  l0.2,0l2-0.7l0-0.1l0.2-0.4c3-4.6,13.8-24.1,14.3-46C333.5,218.7,317.9,197,315.5,193.9 M117.1,110.9c3.7,0,8.6,6,3.1,12.3l2.6,0.2  c0,0-3.1,5.5-3.2,7.5h-0.1c-0.7,0-7-0.3-7.2-9.6C112.1,111.3,117.1,110.9,117.1,110.9 M152.9,97.2c4.3-4.2,10-6.3,17.1-6.3  c10.8,0,21.1,4.9,25.2,7.5c4.1-2.6,14.5-7.5,25.2-7.5c7.1,0,12.8,2.1,17.1,6.3c6.3,6.2,9.4,12.9,9.1,19.8  c-0.5,11.9-11.1,20.7-11.2,20.8l-0.6,0.5l0.6,0.5c0.1,0.1,11.6,6.4,8.2,20.2c-4.3,17.7-25.5,26.8-48.4,26.8  c-22.9,0-44-9.1-48.4-26.8c-3.4-13.8,8-20.1,8.2-20.2l0.6-0.5l-0.6-0.5c-0.1-0.1-10.7-8.8-11.2-20.8  C143.5,110.1,146.6,103.4,152.9,97.2 M256.1,208.4c-2.4,15.1-11,21.3-19.9,23.9c-0.8,0.2-1.7,0.5-2.6,0.6c-1.4,0.3-2.8,0.5-4.1,0.7  l-1.1,2.4c1.4-0.1,2.9-0.3,4.4-0.6c-3.2,8.9-12.8,27.6-37.6,27.6c-24.9,0-34.5-19-37.6-27.8c1.3,0.3,2.6,0.5,3.9,0.6l-1.4-2.5  c-1.1-0.2-2.2-0.4-3.3-0.7c-0.9-0.2-1.7-0.4-2.6-0.7c-8.5-2.8-16.6-9.2-18.9-23.7l0.2-0.2l0.4-0.3c0.3-0.3,0.7-0.6,1.2-1  c0.5-0.4,1.1-0.8,1.8-1.3c5.7-4.2,17.5-11.4,29.7-9.9v-0.1c6.4,0.8,12.9,4,18.7,11.3l0,0.2c1.6,2,3.1,4.4,4.6,7.2  c1.3,2.7,2.4,6.1,2.4,10.1l-0.1,0.7l2.8,0.5l-0.1-1.1c0-4.2,1.2-7.7,2.6-10.4l0.2-0.2l3.8-6l0-0.2l0.6-0.7  c5.6-7.1,11.9-10.3,18.1-11.2v0.1c17.2-2.5,33.8,12.7,33.8,12.7L256.1,208.4z M279.5,121.2c-0.2,9.4-6.5,9.6-7.2,9.6h-0.1  c-0.2-2-3.2-7.5-3.2-7.5l2.6-0.2c-5.5-6.3-0.6-12.3,3.1-12.3C274.8,110.9,279.8,111.3,279.5,121.2"
         id="path3578" /><path
         fill="#0E2A33"
         d="M334.1,240.2c0.5-21.5-15-43.2-17.4-46.3c2.7-30.5-12.7-49.5-26.1-60c-3.6-2.8-7.2-5.2-10.7-7.2l-0.1,0.2  c0,0,35.4,26.8,23.9,70.3c0,0,30.9,29.4,5.9,87.6c3.8,1.2,6,2.3,6.6,2.7c0.7,1.3,4.6,9.1,0.6,23.8l-1.3,4.7l3.2-3.6  c0,0,0.9-0.9,2-0.8c1.2,0.1,2.4,1.2,3.6,3.2c1.1,1.9,0.5,4.3-1.7,6.2c-4.1,3.6-12.1,4.5-20.6-1.9l-1.3-0.9l-0.5,1.5  c-0.1,0.2-1.5,3.9-8.5,3.9c-7.2,0-9.7-4.3-9.7-4.5l-0.6-1.1l-1.1,0.7c-0.1,0.1-2.7,1.7-5-0.8c-1.9-2.1-4.6-13.7-1.9-25.1  c-0.6-1-1.1-1.9-1.6-2.9c-3.8,12.6-1,26.4,1.8,29.5c2.4,2.6,5.2,2.4,6.9,1.7c1.3,1.7,4.6,4.8,11.1,4.8c6.1,0,8.9-2.5,10-4.2  c4.6,3.2,9,4.5,12.9,4.5c3.9,0,7.3-1.3,9.6-3.4c3-2.7,3.8-6.2,2.1-9.1c-1.6-2.7-3.4-4.1-5.3-4.3c-0.5-0.1-1,0-1.4,0.1  c3-13.1-0.1-20.5-1.2-22.7l0.2-0.4C321.6,281.6,333.5,262.1,334.1,240.2"
         id="path3580" /><path
         fill="#0E2A33"
         d="M120,289.2c-0.5,1-1,1.9-1.5,2.9c2.9,11.5,0.2,23.4-1.8,25.6c-2.2,2.5-4.7,1-5,0.8l-1.1-0.7l-0.6,1.1  c-0.1,0.2-2.5,4.5-9.7,4.5c-7,0-8.5-3.8-8.5-3.9l-0.5-1.5l-1.3,1c-8.6,6.4-16.5,5.6-20.6,2c-2.1-1.9-2.8-4.3-1.7-6.2  c1.2-2,2.4-3.1,3.5-3.2c1.2-0.1,2.1,0.8,2.1,0.8l3.2,3.6l-1.3-4.7c-4-14.8-0.1-22.6,0.6-23.8c0.6-0.4,2.7-1.4,6.3-2.5  c-25.1-58.3,5.9-87.7,5.9-87.7c-11.5-43.4,23.9-70.2,23.9-70.2c-3.3,1.9-6.9,4.2-10.4,7c-13.4,10.5-28.8,29.4-26.1,60  c-2.3,3.2-17.9,24.8-17.4,46.3c0.5,22.6,13.2,42.7,15.7,46.4c-1.2,2.2-4.2,9.6-1.2,22.7c-0.4-0.1-0.9-0.1-1.4-0.1  c-2,0.2-3.7,1.7-5.3,4.3c-1.7,2.9-0.8,6.4,2.1,9.1c4.6,4.1,13.3,5.3,22.5-1.1c1.1,1.6,3.9,4.2,10,4.2c6.5,0,9.9-3.2,11.1-4.8  c1.8,0.7,4.6,0.9,6.9-1.7C121.3,316.1,124.1,301.9,120,289.2"
         id="path3582" /><path
         fill="#0C252D"
         d="M196,280.5c14.3,0,15.6,11,15.7,13c-0.8,1.5-1.2,2.4-1.5,2.9c-0.2,0.4-0.4,0.6-0.4,0.7  c-4.9,3.9-6.9,8.8-5.5,13c1.1,3.2,4.1,5.3,7.3,5.3c4.7,0,7.2-0.8,8.3-1.3c1.8,0.6,8.2,2.8,12.4,2.8c3.8,0,5.7-1.7,6.6-2.8  c1.4,0.7,4.1,1.8,6.5,1.8c2.4,0,4-1.3,4.8-2.4c2.9,1.8,6.8,2.5,9.3,0.8c1.5-1,3-3.2,1.7-7.9c-2.2-8.1-11.9-11-16.3-12  c2.7-3.1,8-10.2,8-18.8c0-7.8-5.2-11.1-8.7-12.5c7.5-4.1,13.4-11.8,17.4-22.6l0.4-1l-0.1-1.1c0,0-14.6,8.4-24.5-2.1  c-1.1-1.1-2.3-2.3-3.7-3.4c-5.6,1.2-11.1,1.1-15,1.1c-0.6,0-1.3,0-1.8,0c-9.7,0-19.6-3.1-19.6-9.9c0-1.8,0.2-3.4,0.6-4.9  c-0.6,0-1.2,0.1-1.9,0.1c-0.7,0-1.3,0-1.9-0.1c0.3,1.5,0.6,3.2,0.6,4.9c0,6.9-9.8,9.9-19.6,9.9c-0.5,0-1.2,0-1.8,0  c-4,0-9.4,0.1-15-1.1c-1.4,1.1-2.7,2.3-3.8,3.4c-9.9,10.6-24.5,2.1-24.5,2.1c0.2,0.7,0.5,1.4,0.7,2.1c4,10.8,10,18.6,17.4,22.6  c-3.5,1.3-8.8,4.6-8.8,12.5c0,8.6,5.3,15.7,8,18.8c-4.4,0.9-14.1,3.8-16.3,12c-1.3,4.7,0.2,6.9,1.7,7.9c2.5,1.7,6.4,0.9,9.3-0.8  c0.8,1.1,2.3,2.4,4.8,2.4c2.4,0,5.1-1.1,6.5-1.8c0.9,1.1,2.8,2.8,6.6,2.8c4.2,0,10.6-2.2,12.4-2.8c1,0.5,3.5,1.3,8.3,1.3  c3.2,0,6.2-2.1,7.3-5.3c1.5-4.2-0.6-9.1-5.5-13c-0.1-0.1-0.2-0.3-0.4-0.7c-0.3-0.5-0.8-1.4-1.6-2.9  C180.4,291.5,181.8,280.5,196,280.5 M242.4,296.3L242.4,296.3c1.1,0.1,14.1,2,16.5,10.7c0.5,1.9,0.8,4.3-0.7,5.4  c-1.7,1.1-5.2,0.4-7.6-1.4l-1.2-0.9l-0.6,1.4c0,0-1,2.2-3.4,2.2c-2.8,0-6.3-2-6.3-2l-1.1-0.7l-0.5,1.2c0,0.1-1,2.4-5.1,2.4  c-4.5,0-12-2.8-12.1-2.8l-0.6-0.2l-0.5,0.3c0,0-2.1,1.2-7.6,1.2c-2.3,0-4.4-1.5-5.1-3.8c-1.1-3.1,0.5-6.9,4.3-10.1  c1.1,0.6,3.4,1.5,5.4,1.5c0.6,0,1.2-0.1,1.8-0.3C220.4,299.5,234.6,296.4,242.4,296.3 M181.3,299.3c3.8,3.2,5.4,7,4.3,10.1  c-0.8,2.2-2.8,3.8-5.1,3.8c-5.5,0-7.6-1.2-7.6-1.2l-0.5-0.3l-0.5,0.2c-0.1,0-7.6,2.8-12.1,2.8c-4.1,0-5.1-2.3-5.1-2.4l-0.5-1.3  l-1.2,0.7c0,0-3.5,2-6.3,2c-2.4,0-3.4-2.1-3.4-2.2l-0.6-1.4l-1.2,0.9c-2.4,1.9-6,2.5-7.6,1.4c-1.6-1-1.3-3.5-0.7-5.4  c2.4-8.6,15.5-10.5,16.5-10.7h0.1c7.8,0,22,3.2,24.4,4.2c0.5,0.2,1.2,0.3,1.8,0.3C177.9,300.8,180.2,299.8,181.3,299.3 M157.7,235.2  c4.8,1,9.5,1.2,13.1,1.2c0.8,0,1.6,0,2.3,0c0.7,0,1.2,0,1.8,0c8.4,0,17.9-2.2,20.9-8.1c3,5.9,12.5,8.1,20.9,8.1c0.5,0,1.1,0,1.8,0  c0.7,0,1.5,0,2.3,0c3.4,0,7.6-0.1,12.1-1c-3.2,8.9-12.8,27.6-37.6,27.6C170.4,263,160.8,244,157.7,235.2"
         id="path3584" /><path
         fill="#60B9E8"
         d="M158.9,187.2c0,0-1.2-5.3,8.3-3.7c9.5,1.7,19.9,5.8,19.9,5.8s0.7-3.5,6.5-3.1c5.8,0.4,9,3.6,9,3.6  s13.6-6,19.2-5.9c5.6,0.1,6-1.4,6.7,0.8c0.7,2.2,0.6,4,0,7c-0.6,3.1-3.3,6.5-3.3,8.6c0,2.1,3.6,13.8-1.5,14.5  c-5.1,0.7-21.8-8.3-21.8-8.3s-1.2,3.6-6.6,3.6c-5.4,0-8.3-2.4-8.3-2.4s-18.1,7.6-21.2,7.1c-3.1-0.4-3.3-3.6-2.9-6.4  c0.4-2.9,1.5-8,0.9-8.5C163.2,199.4,158.9,187.2,158.9,187.2"
         id="path3586" /><path
         fill="#4CAAD3"
         d="M165.9,200.6c0,0,0.4,5.6,4.9,5.6c4.5,0,14-7.3,14-7.3s6.3,4.7,9.8,4.7c3.4,0,6.3-4.7,6.3-4.7  s20.2,3.1,25.6-3.9c5.4-6.9-1.2,5.3-1.2,5.3s3.8,13.5-0.5,14.6c-4.4,1.1-22.5-7.9-22.5-7.9s-4.8,3.1-8.2,3c-3.4-0.1-6.9-2.3-6.9-2.3  s-19.9,7.8-23.1,6.4C160.7,212.7,163.1,202.4,165.9,200.6"
         id="path3588" /><path
         fill="#0E2735"
         d="M231.5,184.8c-0.3-1.3-1.1-2.2-2.3-2.8c-5.6-2.8-21.3,3.7-26.9,6.1c-1.8-2.3-4.6-3.9-7.8-3.9  c-3.2,0-6,1.5-7.8,3.9c-5.6-2.5-21.3-8.9-26.9-6.2c-1.2,0.6-2,1.6-2.3,2.8c-1.5,6.5,2.8,13.9,4.4,16.3c-0.9,2.5-2.9,9.4-0.4,13.6  c0.7,1.2,2.2,1.8,4.1,1.8c5.2,0,13.9-3.7,21.6-7.7c1.8,2.1,4.4,3.4,7.4,3.4c3.1,0,5.9-1.5,7.7-3.8c7.6,4.1,16.3,8,21.4,8  c1.9,0,3.3-0.5,4-1.7c2.4-4.2,0.4-11-0.5-13.6C228.7,198.7,233,191.3,231.5,184.8 M164.6,212.9c-1.7-2.9,0.2-9.3,1-11.4l0.4-0.9  l-0.6-0.8c-1.6-2.2-5.5-9.1-4.3-14.2l0.4-0.5c3.2-1.6,15.3,2.5,23.8,6.2c-0.3,0.9-0.4,1.8-0.4,2.8v8.3c0,1.2,0.2,2.3,0.6,3.4  C175.6,210.6,166.1,213.9,164.6,212.9 M200.8,202.4c0,3.4-2.8,6.2-6.2,6.2c-3.4,0-6.2-2.8-6.2-6.2v-8.3c0-3.4,2.8-6.2,6.2-6.2  c3.5,0,6.2,2.8,6.2,6.2V202.4z M223.5,201.5c0.8,2,2.7,8.5,1.1,11.3c-1.6,1.1-11.1-2.4-20.7-7.5c0.3-0.9,0.4-1.9,0.4-2.9v-8.3  c0-1-0.1-1.9-0.4-2.8c8.4-3.7,20.5-7.7,23.7-6.1l0.4,0.5c1.4,6.1-4.3,14.1-4.4,14.2l-0.6,0.8L223.5,201.5z"
         id="path3590" /><path
         fill="#0B1B23"
         d="M122,140.7c1.4-0.9,2.9-1.8,4.4-2.6l0.8-0.4l0.1,1c0.1,0.8,0.2,1.7,0.2,2.5c0,0.8,0.1,1.7,0.1,2.5  c0.1,1.7,0.1,3.3,0.1,5l-1.8-0.8c1.3-1.1,2.6-2.1,3.9-3.2l3.6-3l-2,4.2l-0.3,0.6l-0.3,0.7c-0.1,0.5-0.3,0.9-0.4,1.4  c-0.3,0.9-0.4,1.9-0.6,2.9c-0.1,0.5-0.1,1-0.1,1.5l0,0.8l0,0.8c0,0.5,0.1,1,0.2,1.5c0.1,0.5,0.2,1,0.4,1.5c-0.3-0.4-0.6-0.9-0.8-1.4  l-0.3-0.7l-0.3-0.8l-0.2-0.8l-0.2-0.8c-0.1-0.5-0.1-1.1-0.2-1.6c0-0.5,0-1.1,0-1.6c0-0.5,0.1-1.1,0.2-1.6c0.1-0.5,0.2-1.1,0.4-1.6  l0.2-0.8l0.3-0.8l1.6,1.2c-1.3,1.1-2.5,2.2-3.9,3.3l-1.8,1.4v-2.3c0-1.7,0.1-3.3,0.2-5c0-0.8,0.1-1.7,0.1-2.5c0-0.8,0.1-1.7,0.2-2.5  l0.9,0.6C125.3,139.8,123.7,140.3,122,140.7"
         id="path3592" /><path
         fill="#0B1B23"
         d="M270.6,140.7c-1.7-0.4-3.3-0.9-4.9-1.4l0.9-0.6c0.1,0.8,0.2,1.7,0.2,2.5c0,0.8,0.1,1.7,0.2,2.5  c0.1,1.7,0.1,3.3,0.1,5l0,2.3l-1.8-1.4c-1.3-1.1-2.6-2.2-3.9-3.3l1.6-1.2l0.3,0.8l0.2,0.8c0.1,0.5,0.3,1.1,0.3,1.6  c0.1,0.5,0.1,1.1,0.2,1.6c0,0.5,0,1.1,0,1.6c0,0.5-0.1,1.1-0.2,1.6l-0.2,0.8l-0.2,0.8l-0.3,0.8l-0.3,0.7c-0.2,0.5-0.6,0.9-0.8,1.4  c0.1-0.5,0.3-1,0.4-1.5c0.1-0.5,0.2-1,0.2-1.5l0-0.8v-0.8c0-0.5,0-1-0.1-1.5c-0.1-1-0.3-2-0.5-2.9c-0.1-0.5-0.3-1-0.4-1.4l-0.2-0.7  l-0.3-0.6l-2-4.2l3.6,3c1.3,1.1,2.6,2.1,3.9,3.2l-1.8,0.8c0-1.7,0.1-3.3,0.1-5c0-0.8,0.1-1.7,0.1-2.5c0-0.8,0.1-1.7,0.2-2.5l0.1-1  l0.8,0.4C267.7,138.9,269.1,139.8,270.6,140.7"
         id="path3594" /><path
         fill="#143B4C"
         d="M257.9,99.3c-0.9-1.2-1.7-2.5-2.7-3.8c-1-1.2-1.8-2.4-2.9-3.5l-1.5-1.6l-1.6-1.5l-0.8-0.7l-0.9-0.7  c-0.6-0.4-1.1-0.9-1.7-1.3l-1.8-1.2c-0.6-0.4-1.3-0.7-1.9-1.1l-0.9-0.5l-1-0.5c-0.7-0.3-1.3-0.6-2-0.8l-2-0.7l-2.1-0.6  c-1.4-0.3-2.7-0.6-4.2-0.7l-1-0.1l-1.1-0.1c-0.7,0-1.4-0.1-2.1-0.1c-1.4,0-2.9,0-4.3,0.1l-2.1,0.2l-2.1,0.3  c-1.4,0.3-2.8,0.6-4.2,0.9c-1.4,0.4-2.8,0.8-4.2,1.2c-1.4,0.4-2.8,0.9-4.1,1.5c-1.4,0.5-2.7,1.1-4,1.7c-1.3,0.6-2.7,1.3-3.8,1.9  l-1.7,1l-1.7-1c-1.1-0.6-2.5-1.3-3.7-1.9c-1.3-0.6-2.6-1.2-4-1.7c-1.4-0.5-2.7-1-4.1-1.5c-1.4-0.4-2.8-0.8-4.2-1.2  c-1.4-0.3-2.8-0.6-4.2-0.9l-2.1-0.3l-2.2-0.2c-1.4-0.1-2.8-0.2-4.3-0.2c-0.7,0-1.4,0-2.1,0.1l-1.1,0.1l-1,0.1  c-1.4,0.2-2.8,0.4-4.2,0.7l-2,0.6l-2,0.7c-0.7,0.2-1.3,0.6-2,0.8l-1,0.5l-0.9,0.5c-0.6,0.4-1.3,0.7-1.9,1.1l-1.8,1.2  c-0.6,0.4-1.2,0.9-1.7,1.3l-0.9,0.7l-0.8,0.7l-1.6,1.5l-1.5,1.6c-1.1,1.1-1.9,2.3-2.9,3.5c-0.9,1.2-1.7,2.5-2.7,3.7  c0.6-1.4,1.1-2.9,1.8-4.2c0.8-1.4,1.4-2.8,2.3-4.1c0.4-0.7,0.8-1.3,1.3-2l1.5-1.8l0.7-0.9l0.8-0.9c0.6-0.6,1.1-1.2,1.7-1.7  c1.2-1.1,2.4-2.1,3.7-3.1l1-0.7l1.1-0.6c0.7-0.4,1.4-0.9,2.1-1.2l2.2-1.1l2.3-0.8c1.5-0.5,3.1-1,4.7-1.3l1.2-0.2l1.2-0.2  c0.8-0.1,1.6-0.2,2.4-0.3c1.6-0.1,3.2-0.1,4.9-0.1l2.4,0.1l2.4,0.3c1.6,0.2,3.2,0.5,4.7,0.8c1.6,0.3,3.1,0.8,4.7,1.2  c1.5,0.5,3,1,4.5,1.5c1.5,0.6,3,1.2,4.4,1.8c1.5,0.7,2.9,1.3,4.4,2.2h-3.4c1.6-0.9,2.9-1.5,4.4-2.2c1.4-0.6,2.9-1.3,4.4-1.8  c1.5-0.5,3-1,4.6-1.5c1.5-0.4,3.1-0.9,4.6-1.2c1.6-0.3,3.2-0.6,4.8-0.8l2.4-0.3l2.4-0.1c1.6,0,3.3,0,4.9,0.1c0.8,0,1.6,0.2,2.4,0.3  l1.2,0.2l1.2,0.2c1.6,0.3,3.2,0.8,4.7,1.3l2.3,0.9l2.2,1.1c0.7,0.3,1.4,0.8,2.1,1.2l1,0.6l1,0.7c1.3,0.9,2.5,2,3.7,3  c0.6,0.5,1.1,1.1,1.7,1.7l0.8,0.9l0.7,0.9l1.4,1.8c0.4,0.7,0.9,1.3,1.3,2c0.9,1.3,1.5,2.7,2.3,4.1C256.7,96.5,257.3,97.9,257.9,99.3  "
         id="path3596" /></g></g></svg>