<?xml version="1.0" encoding="UTF-8" standalone="no"?><!DOCTYPE svg PUBLIC "-//W3C//DTD SVG 1.1//EN" "http://www.w3.org/Graphics/SVG/1.1/DTD/svg11.dtd"><svg width="100%" height="100%" viewBox="0 0 768 768" version="1.1" xmlns="http://www.w3.org/2000/svg" xmlns:xlink="http://www.w3.org/1999/xlink" xml:space="preserve" xmlns:serif="http://www.serif.com/" style="fill-rule:evenodd;clip-rule:evenodd;stroke-linejoin:round;stroke-miterlimit:2;"><rect id="Logo--Avatar-" serif:id="Logo (Avatar)" x="0" y="0" width="768" height="768" style="fill:none;"/><rect id="Background" x="0" y="0" width="768" height="768" style="fill:#5849be;"/><circle id="White" cx="384" cy="384.002" r="317.136" style="fill:#fff;"/><path id="Pupil" d="M316.487,141.518c21.488,-5.978 44.13,-9.174 67.513,-9.174c138.893,0 251.656,112.763 251.656,251.656c0,138.893 -112.763,251.656 -251.656,251.656c-138.893,0 -251.656,-112.763 -251.656,-251.656c0,-23.38 3.195,-46.02 9.172,-67.506c22.702,32.968 60.708,54.597 103.725,54.597c69.459,0 125.85,-56.39 125.85,-125.847c0,-43.019 -21.633,-81.025 -54.604,-103.726Z" style="fill:#5849be;"/></svg>