<?xml version="1.0" encoding="UTF-8" standalone="no"?>
<!-- Created with Inkscape (http://www.inkscape.org/) -->

<svg
   xmlns:dc="http://purl.org/dc/elements/1.1/"
   xmlns:cc="http://creativecommons.org/ns#"
   xmlns:rdf="http://www.w3.org/1999/02/22-rdf-syntax-ns#"
   xmlns:svg="http://www.w3.org/2000/svg"
   xmlns="http://www.w3.org/2000/svg"
   xmlns:xlink="http://www.w3.org/1999/xlink"
   xmlns:sodipodi="http://sodipodi.sourceforge.net/DTD/sodipodi-0.dtd"
   xmlns:inkscape="http://www.inkscape.org/namespaces/inkscape"
   width="1600"
   height="900"
   id="svg3353"
   version="1.1"
   inkscape:version="0.91 r"
   sodipodi:docname="subtle.svg"
   inkscape:export-filename="/home/gschier/Desktop/insomnia.png"
   inkscape:export-xdpi="144"
   inkscape:export-ydpi="144">
  <defs
     id="defs3355">
    <linearGradient
       id="linearGradient4208">
      <stop
         style="stop-color:#3c3665;stop-opacity:1;"
         offset="0"
         id="stop4210" />
      <stop
         style="stop-color:#1b192e;stop-opacity:1;"
         offset="1"
         id="stop4212" />
    </linearGradient>
    <linearGradient
       id="linearGradient4387">
      <stop
         style="stop-color:#443e74;stop-opacity:1;"
         offset="0"
         id="stop4389" />
      <stop
         style="stop-color:#2c284a;stop-opacity:1;"
         offset="1"
         id="stop4391" />
    </linearGradient>
    <filter
       id="filter4375"
       inkscape:label="Drop Shadow"
       style="color-interpolation-filters:sRGB">
      <feFlood
         id="feFlood4377"
         flood-opacity="0.427"
         flood-color="rgb(0,0,0)"
         result="flood" />
      <feComposite
         id="feComposite4379"
         in2="SourceGraphic"
         in="flood"
         operator="in"
         result="composite1" />
      <feGaussianBlur
         id="feGaussianBlur4381"
         stdDeviation="5.1"
         result="blur" />
      <feOffset
         id="feOffset4383"
         dx="-2.41474e-15"
         dy="4"
         result="offset" />
      <feComposite
         id="feComposite4385"
         in2="offset"
         in="SourceGraphic"
         operator="over"
         result="composite2" />
    </filter>
    <linearGradient
       id="linearGradient3993">
      <stop
         style="stop-color:#7a6dcb;stop-opacity:1;"
         offset="0"
         id="stop3995" />
      <stop
         style="stop-color:#5b4bbf;stop-opacity:1;"
         offset="1"
         id="stop3997" />
    </linearGradient>
    <filter
       id="filter4300"
       style="color-interpolation-filters:sRGB"
       inkscape:label="Drop Shadow">
      <feFlood
         id="feFlood4302"
         flood-opacity="0.152"
         flood-color="rgb(0,0,0)"
         result="flood" />
      <feComposite
         id="feComposite4304"
         in2="SourceGraphic"
         in="flood"
         operator="in"
         result="composite1" />
      <feGaussianBlur
         id="feGaussianBlur4306"
         stdDeviation="16.7"
         result="blur" />
      <feOffset
         id="feOffset4308"
         dx="0"
         dy="0"
         result="offset" />
      <feComposite
         id="feComposite4310"
         in2="offset"
         in="SourceGraphic"
         operator="over"
         result="composite2" />
    </filter>
    <filter
       id="filter3436"
       inkscape:label="Drop Shadow"
       style="color-interpolation-filters:sRGB">
      <feFlood
         id="feFlood3438"
         flood-opacity="0.163"
         flood-color="rgb(0,0,0)"
         result="flood" />
      <feComposite
         id="feComposite3440"
         in2="SourceGraphic"
         in="flood"
         operator="in"
         result="composite1" />
      <feGaussianBlur
         id="feGaussianBlur3442"
         stdDeviation="10"
         result="blur" />
      <feOffset
         id="feOffset3444"
         dx="0"
         dy="0"
         result="offset" />
      <feComposite
         id="feComposite3446"
         in2="offset"
         in="SourceGraphic"
         operator="over"
         result="composite2" />
    </filter>
    <linearGradient
       inkscape:collect="always"
       xlink:href="#linearGradient3993-0"
       id="linearGradient3147"
       gradientUnits="userSpaceOnUse"
       x1="194.94528"
       y1="624.09656"
       x2="194.94528"
       y2="826.74011" />
    <linearGradient
       id="linearGradient3993-0">
      <stop
         style="stop-color:#7a6dcb;stop-opacity:1;"
         offset="0"
         id="stop3995-0" />
      <stop
         style="stop-color:#5b4bbf;stop-opacity:1;"
         offset="1"
         id="stop3997-9" />
    </linearGradient>
  </defs>
  <sodipodi:namedview
     id="base"
     pagecolor="#ffffff"
     bordercolor="#666666"
     borderopacity="1.0"
     inkscape:pageopacity="0.0"
     inkscape:pageshadow="2"
     inkscape:zoom="0.77047504"
     inkscape:cx="565.25792"
     inkscape:cy="380.19032"
     inkscape:document-units="px"
     inkscape:current-layer="layer1"
     showgrid="false"
     inkscape:window-width="1920"
     inkscape:window-height="1056"
     inkscape:window-x="0"
     inkscape:window-y="24"
     inkscape:window-maximized="1" />
  <metadata
     id="metadata3358">
    <rdf:RDF>
      <cc:Work
         rdf:about="">
        <dc:format>image/svg+xml</dc:format>
        <dc:type
           rdf:resource="http://purl.org/dc/dcmitype/StillImage" />
        <dc:title />
      </cc:Work>
    </rdf:RDF>
  </metadata>
  <g
     inkscape:label="Layer 1"
     inkscape:groupmode="layer"
     id="layer1"
     transform="translate(0,-152.36218)">
    <rect
       style="fill:#463e7a;fill-opacity:1;stroke:none"
       id="rect4026"
       width="1600"
       height="900"
       x="-6.640625e-07"
       y="152.36217"
       inkscape:export-filename="/home/gschier/Workspace/insomnia/app/art/wallpapers/flat.png"
       inkscape:export-xdpi="460.79999"
       inkscape:export-ydpi="460.79999" />
    <path
       style="fill:#ffffff;fill-opacity:0.0900474;stroke:none"
       d="M 54.042969 0 C 62.324088 8.9484031 68.424414 19.946482 71.457031 32.167969 C 73.003612 38.400779 73.516981 42.860535 73.513672 50.015625 C 73.506672 66.457005 68.650066 80.99691 58.769531 94.15625 C 44.871411 112.66649 23.026035 123.45704 0 123.50195 L 0 137.30078 A 87.299744 87.299736 0 0 0 87.300781 50 A 87.299744 87.299736 0 0 0 71.515625 0 L 54.042969 0 z M 128.56445 0 A 87.299744 87.299736 0 0 0 112.69922 50 A 87.299744 87.299736 0 0 0 200 137.30078 A 87.299744 87.299736 0 0 0 287.30078 50 A 87.299744 87.299736 0 0 0 271.51562 0 L 254.04297 0 C 262.32409 8.9484031 268.42441 19.946482 271.45703 32.167969 C 273.00361 38.400779 273.51698 42.860535 273.51367 50.015625 C 273.50667 66.457005 268.65007 80.99691 258.76953 94.15625 C 243.68082 114.25219 219.2252 125.26111 194.06055 123.28516 C 168.87857 121.3079 146.06079 106.00349 134.52344 83.351562 C 129.4567 73.403723 126.93228 63.621762 126.54688 52.451172 C 126.42167 48.822262 126.49695 44.488323 126.71289 42.820312 L 127.10352 39.787109 L 130.16992 41.740234 C 142.3735 49.510374 158.82601 50.145629 171.85156 43.349609 C 181.65796 38.233179 189.47995 28.668011 192.58984 17.994141 C 194.31737 12.064849 194.68715 5.9529627 193.79297 0 L 128.56445 0 z M 328.56445 0 A 87.299744 87.299736 0 0 0 312.69922 50 A 87.299744 87.299736 0 0 0 400 137.30078 A 87.299744 87.299736 0 0 0 487.30078 50 A 87.299744 87.299736 0 0 0 471.51562 0 L 454.04297 0 C 462.32409 8.9484031 468.42441 19.946482 471.45703 32.167969 C 473.00361 38.400779 473.51698 42.860535 473.51367 50.015625 C 473.50667 66.457005 468.65007 80.99691 458.76953 94.15625 C 443.68082 114.25219 419.2252 125.26111 394.06055 123.28516 C 368.87857 121.3079 346.06079 106.00349 334.52344 83.351562 C 329.4567 73.403723 326.93228 63.621762 326.54688 52.451172 C 326.42167 48.822262 326.49695 44.488323 326.71289 42.820312 L 327.10352 39.787109 L 330.16992 41.740234 C 342.3735 49.510374 358.82601 50.145629 371.85156 43.349609 C 381.65796 38.233179 389.47995 28.668011 392.58984 17.994141 C 394.31737 12.064849 394.68715 5.9529627 393.79297 0 L 328.56445 0 z M 528.56445 0 A 87.299744 87.299736 0 0 0 512.69922 50 A 87.299744 87.299736 0 0 0 600 137.30078 A 87.299744 87.299736 0 0 0 687.30078 50 A 87.299744 87.299736 0 0 0 671.51562 0 L 654.04297 0 C 662.32409 8.9484031 668.42441 19.946482 671.45703 32.167969 C 673.00361 38.400779 673.51698 42.860535 673.51367 50.015625 C 673.50667 66.457005 668.65007 80.99691 658.76953 94.15625 C 643.68082 114.25219 619.2252 125.26111 594.06055 123.28516 C 568.87857 121.3079 546.06079 106.00349 534.52344 83.351562 C 529.4567 73.403723 526.93228 63.621762 526.54688 52.451172 C 526.42168 48.822262 526.49695 44.488323 526.71289 42.820312 L 527.10352 39.787109 L 530.16992 41.740234 C 542.3735 49.510374 558.82601 50.145629 571.85156 43.349609 C 581.65796 38.233179 589.47995 28.668011 592.58984 17.994141 C 594.31737 12.064849 594.68715 5.9529627 593.79297 0 L 528.56445 0 z M 728.56445 0 A 87.299744 87.299736 0 0 0 712.69922 50 A 87.299744 87.299736 0 0 0 800 137.30078 A 87.299744 87.299736 0 0 0 887.30078 50 A 87.299744 87.299736 0 0 0 871.51562 0 L 854.04297 0 C 862.32409 8.9484031 868.42441 19.946482 871.45703 32.167969 C 873.00361 38.400779 873.51698 42.860535 873.51367 50.015625 C 873.50667 66.457005 868.65007 80.99691 858.76953 94.15625 C 843.68082 114.25219 819.2252 125.26111 794.06055 123.28516 C 768.87857 121.3079 746.0608 106.00349 734.52344 83.351562 C 729.45671 73.403723 726.93228 63.621762 726.54688 52.451172 C 726.42168 48.822262 726.49695 44.488323 726.71289 42.820312 L 727.10352 39.787109 L 730.16992 41.740234 C 742.3735 49.510374 758.82601 50.145629 771.85156 43.349609 C 781.65796 38.233179 789.47995 28.668011 792.58984 17.994141 C 794.31736 12.064849 794.68715 5.9529627 793.79297 0 L 728.56445 0 z M 928.56445 0 A 87.299744 87.299736 0 0 0 912.69922 50 A 87.299744 87.299736 0 0 0 1000 137.30078 A 87.299744 87.299736 0 0 0 1087.3008 50 A 87.299744 87.299736 0 0 0 1071.5156 0 L 1054.043 0 C 1062.3241 8.9484031 1068.4244 19.946482 1071.457 32.167969 C 1073.0036 38.400779 1073.517 42.860535 1073.5137 50.015625 C 1073.5037 66.457005 1068.65 80.99691 1058.7695 94.15625 C 1043.6808 114.25219 1019.2252 125.26111 994.06055 123.28516 C 968.87861 121.3079 946.06083 106.00349 934.52344 83.351562 C 929.45672 73.403723 926.9323 63.621762 926.54688 52.451172 C 926.42169 48.822262 926.49685 44.488323 926.71289 42.820312 L 927.10352 39.787109 L 930.16992 41.740234 C 942.3735 49.510374 958.82605 50.145629 971.85156 43.349609 C 981.65797 38.233179 989.47996 28.668011 992.58984 17.994141 C 994.31739 12.064849 994.68715 5.9529627 993.79297 0 L 928.56445 0 z M 1128.5645 0 A 87.299744 87.299736 0 0 0 1112.6992 50 A 87.299744 87.299736 0 0 0 1200 137.30078 A 87.299744 87.299736 0 0 0 1287.3008 50 A 87.299744 87.299736 0 0 0 1271.5156 0 L 1254.043 0 C 1262.3241 8.9484031 1268.4244 19.946482 1271.457 32.167969 C 1273.0036 38.400779 1273.517 42.860535 1273.5137 50.015625 C 1273.5037 66.457005 1268.65 80.99691 1258.7695 94.15625 C 1243.6808 114.25219 1219.2252 125.26111 1194.0605 123.28516 C 1168.8786 121.3079 1146.0608 106.00349 1134.5234 83.351562 C 1129.4567 73.403723 1126.9323 63.621762 1126.5469 52.451172 C 1126.4217 48.822262 1126.4965 44.488323 1126.7129 42.820312 L 1127.1035 39.787109 L 1130.1699 41.740234 C 1142.3734 49.510374 1158.8261 50.145629 1171.8516 43.349609 C 1181.658 38.233179 1189.4799 28.668011 1192.5898 17.994141 C 1194.3174 12.064849 1194.6872 5.9529627 1193.793 0 L 1128.5645 0 z M 1328.5645 0 A 87.299744 87.299736 0 0 0 1312.6992 50 A 87.299744 87.299736 0 0 0 1400 137.30078 A 87.299744 87.299736 0 0 0 1487.3008 50 A 87.299744 87.299736 0 0 0 1471.5156 0 L 1454.043 0 C 1462.3241 8.9484031 1468.4244 19.946482 1471.457 32.167969 C 1473.0036 38.400779 1473.517 42.860535 1473.5137 50.015625 C 1473.5037 66.457005 1468.65 80.99691 1458.7695 94.15625 C 1443.6808 114.25219 1419.2252 125.26111 1394.0605 123.28516 C 1368.8786 121.3079 1346.0608 106.00349 1334.5234 83.351562 C 1329.4567 73.403723 1326.9323 63.621762 1326.5469 52.451172 C 1326.4217 48.822262 1326.4965 44.488323 1326.7129 42.820312 L 1327.1035 39.787109 L 1330.1699 41.740234 C 1342.3734 49.510374 1358.8261 50.145629 1371.8516 43.349609 C 1381.658 38.233179 1389.4799 28.668011 1392.5898 17.994141 C 1394.3174 12.064849 1394.6872 5.9529627 1393.793 0 L 1328.5645 0 z M 1528.5645 0 A 87.299744 87.299736 0 0 0 1522.1973 10.400391 A 87.299744 87.299736 0 0 0 1513.9707 35.162109 A 87.299744 87.299736 0 0 0 1512.918 43.824219 A 87.299744 87.299736 0 0 0 1512.6992 50 A 87.299744 87.299736 0 0 0 1514.4395 67.34375 A 87.299744 87.299736 0 0 0 1516.5996 75.798828 A 87.299744 87.299736 0 0 0 1523.3867 91.853516 A 87.299744 87.299736 0 0 0 1533.2285 106.24023 A 87.299744 87.299736 0 0 0 1539.1777 112.625 A 87.299744 87.299736 0 0 0 1560.4004 127.80273 A 87.299744 87.299736 0 0 0 1576.6465 134.11914 A 87.299744 87.299736 0 0 0 1593.8242 137.08203 A 87.299744 87.299736 0 0 0 1600 137.30078 L 1600 123.50195 C 1599.5899 123.50275 1599.1804 123.50995 1598.7695 123.50391 C 1597.2044 123.48089 1595.6333 123.40865 1594.0605 123.28516 C 1593.2736 123.22337 1592.4891 123.14818 1591.707 123.06055 C 1590.1429 122.88527 1588.5901 122.65929 1587.0488 122.38281 C 1585.5076 122.10634 1583.9789 121.77905 1582.4648 121.4043 C 1580.9507 121.02954 1579.4513 120.60684 1577.9688 120.13672 C 1577.2275 119.90166 1576.4904 119.65484 1575.7578 119.39648 C 1572.0949 118.10473 1568.5434 116.52443 1565.1387 114.67773 C 1564.4577 114.3084 1563.7823 113.92755 1563.1133 113.53711 C 1561.1064 112.36578 1559.1551 111.10077 1557.2656 109.74609 C 1556.006 108.84297 1554.7742 107.90088 1553.5723 106.91992 C 1551.7693 105.44848 1550.034 103.89032 1548.373 102.25195 C 1547.2657 101.15971 1546.1911 100.03193 1545.1523 98.869141 C 1543.5942 97.124963 1542.1163 95.302884 1540.7246 93.408203 C 1538.4051 90.250402 1536.3262 86.890927 1534.5234 83.351562 C 1534.2068 82.729822 1533.9004 82.107153 1533.6035 81.486328 C 1533.0097 80.244679 1532.4554 79.00426 1531.9395 77.761719 C 1531.6815 77.140448 1531.4322 76.519116 1531.1934 75.896484 C 1530.477 74.028588 1529.8462 72.153574 1529.2988 70.259766 C 1528.9339 68.997227 1528.6062 67.726957 1528.3145 66.445312 C 1528.0227 65.163668 1527.7671 63.869321 1527.5469 62.5625 C 1527.2165 60.602268 1526.9667 58.612079 1526.793 56.578125 C 1526.6772 55.222156 1526.5951 53.847496 1526.5469 52.451172 C 1526.5156 51.543944 1526.4975 50.591004 1526.4902 49.648438 C 1526.4684 46.820737 1526.5506 44.07132 1526.7129 42.820312 L 1527.1035 39.787109 L 1530.1699 41.740234 C 1530.9326 42.225868 1531.7118 42.683463 1532.5059 43.113281 C 1533.2999 43.543099 1534.11 43.946455 1534.9316 44.320312 C 1535.7532 44.69417 1536.5862 45.039669 1537.4316 45.357422 C 1538.2771 45.675175 1539.1345 45.965058 1540 46.226562 C 1540.8655 46.488067 1541.7393 46.720671 1542.6211 46.925781 C 1543.5029 47.130892 1544.3927 47.308459 1545.2871 47.457031 C 1547.0759 47.754177 1548.8865 47.937686 1550.7031 48.007812 C 1552.5197 48.077939 1554.3418 48.033047 1556.1562 47.875 C 1557.0635 47.795976 1557.97 47.689018 1558.8711 47.552734 C 1559.7722 47.416451 1560.6674 47.252282 1561.5586 47.058594 C 1562.4498 46.864905 1563.3354 46.641862 1564.2129 46.390625 C 1566.8455 45.636913 1569.4093 44.623863 1571.8516 43.349609 C 1572.4645 43.029832 1573.0693 42.69356 1573.666 42.339844 C 1576.6497 40.571264 1579.4227 38.387333 1581.9023 35.892578 C 1582.3983 35.393627 1582.8818 34.882481 1583.3535 34.359375 C 1584.7688 32.790057 1586.0722 31.116733 1587.2461 29.359375 C 1588.8112 27.016231 1590.1457 24.525571 1591.207 21.939453 C 1591.4724 21.292924 1591.7207 20.64006 1591.9512 19.982422 C 1592.1817 19.324783 1592.3955 18.661257 1592.5898 17.994141 C 1593.0455 16.430366 1593.4076 14.854668 1593.6777 13.271484 C 1593.9479 11.6883 1594.126 10.09768 1594.2129 8.5078125 C 1594.2564 7.7128788 1594.2773 6.9172655 1594.2754 6.1230469 C 1594.2715 4.5346097 1594.1779 2.9510327 1593.9941 1.375 C 1593.9405 0.915346 1593.8617 0.45789979 1593.793 0 L 1528.5645 0 z M 0 162.69922 L 0 176.49609 C 0.16048822 176.49701 0.31585626 176.49265 0.4765625 176.49414 C 5.2002782 176.53804 9.9847632 176.83131 12.878906 177.35742 C 41.423152 182.54633 64.502538 204.14127 71.457031 232.16797 C 73.003612 238.40078 73.516981 242.86053 73.513672 250.01562 C 73.506672 266.457 68.650066 280.99691 58.769531 294.15625 C 44.871411 312.66649 23.026035 323.45704 0 323.50195 L 0 337.30078 A 87.299744 87.299736 0 0 0 87.300781 250 A 87.299744 87.299736 0 0 0 0 162.69922 z M 200 162.69922 A 87.299744 87.299736 0 0 0 112.69922 250 A 87.299744 87.299736 0 0 0 200 337.30078 A 87.299744 87.299736 0 0 0 287.30078 250 A 87.299744 87.299736 0 0 0 200 162.69922 z M 400 162.69922 A 87.299744 87.299736 0 0 0 312.69922 250 A 87.299744 87.299736 0 0 0 400 337.30078 A 87.299744 87.299736 0 0 0 487.30078 250 A 87.299744 87.299736 0 0 0 400 162.69922 z M 600 162.69922 A 87.299744 87.299736 0 0 0 512.69922 250 A 87.299744 87.299736 0 0 0 600 337.30078 A 87.299744 87.299736 0 0 0 687.30078 250 A 87.299744 87.299736 0 0 0 600 162.69922 z M 800 162.69922 A 87.299744 87.299736 0 0 0 712.69922 250 A 87.299744 87.299736 0 0 0 800 337.30078 A 87.299744 87.299736 0 0 0 887.30078 250 A 87.299744 87.299736 0 0 0 800 162.69922 z M 1000 162.69922 A 87.299744 87.299736 0 0 0 912.69922 250 A 87.299744 87.299736 0 0 0 1000 337.30078 A 87.299744 87.299736 0 0 0 1087.3008 250 A 87.299744 87.299736 0 0 0 1000 162.69922 z M 1200 162.69922 A 87.299744 87.299736 0 0 0 1112.6992 250 A 87.299744 87.299736 0 0 0 1200 337.30078 A 87.299744 87.299736 0 0 0 1287.3008 250 A 87.299744 87.299736 0 0 0 1200 162.69922 z M 1400 162.69922 A 87.299744 87.299736 0 0 0 1312.6992 250 A 87.299744 87.299736 0 0 0 1400 337.30078 A 87.299744 87.299736 0 0 0 1487.3008 250 A 87.299744 87.299736 0 0 0 1400 162.69922 z M 1600 162.69922 A 87.299744 87.299736 0 0 0 1582.6562 164.43945 A 87.299744 87.299736 0 0 0 1566.0039 169.5918 A 87.299744 87.299736 0 0 0 1543.7598 183.22852 A 87.299744 87.299736 0 0 0 1526.5391 202.83203 A 87.299744 87.299736 0 0 0 1518.6328 218.36523 A 87.299744 87.299736 0 0 0 1515.8809 226.64648 A 87.299744 87.299736 0 0 0 1513.9707 235.16211 A 87.299744 87.299736 0 0 0 1512.918 243.82422 A 87.299744 87.299736 0 0 0 1512.6992 250 A 87.299744 87.299736 0 0 0 1514.4395 267.34375 A 87.299744 87.299736 0 0 0 1516.5996 275.79883 A 87.299744 87.299736 0 0 0 1519.5918 283.99609 A 87.299744 87.299736 0 0 0 1523.3867 291.85352 A 87.299744 87.299736 0 0 0 1527.9473 299.29297 A 87.299744 87.299736 0 0 0 1533.2285 306.24023 A 87.299744 87.299736 0 0 0 1545.7324 318.38477 A 87.299744 87.299736 0 0 0 1568.3652 331.36719 A 87.299744 87.299736 0 0 0 1576.6465 334.11914 A 87.299744 87.299736 0 0 0 1593.8242 337.08203 A 87.299744 87.299736 0 0 0 1600 337.30078 L 1600 323.50195 C 1598.0275 323.5058 1596.0462 323.44107 1594.0605 323.28516 C 1592.4867 323.16158 1590.9224 322.98601 1589.3691 322.75977 C 1587.8159 322.53353 1586.2743 322.25567 1584.7461 321.92969 C 1583.982 321.7667 1583.2219 321.59167 1582.4648 321.4043 C 1581.7078 321.21692 1580.9545 321.01804 1580.2051 320.80664 C 1578.7062 320.38384 1577.223 319.91319 1575.7578 319.39648 C 1575.0252 319.13813 1574.2976 318.86722 1573.5742 318.58594 C 1572.8509 318.30466 1572.1315 318.01283 1571.418 317.70898 C 1569.2773 316.79746 1567.1815 315.78575 1565.1387 314.67773 C 1564.4577 314.3084 1563.7823 313.92755 1563.1133 313.53711 C 1561.7753 312.75623 1560.4626 311.93342 1559.1758 311.07031 C 1557.889 310.20721 1556.6278 309.30373 1555.3965 308.36133 C 1552.3181 306.00532 1549.4203 303.40564 1546.7363 300.58594 C 1543.5155 297.2023 1540.6038 293.50252 1538.0586 289.52344 C 1537.2102 288.19708 1536.4033 286.83981 1535.6387 285.45312 C 1535.2564 284.75978 1534.884 284.05944 1534.5234 283.35156 C 1533.5734 281.48634 1532.7134 279.62553 1531.9395 277.76172 C 1531.4235 276.51918 1530.9455 275.2749 1530.5059 274.02539 C 1530.0662 272.77589 1529.6638 271.5223 1529.2988 270.25977 C 1528.3865 267.10342 1527.7047 263.89601 1527.2422 260.5918 C 1527.1497 259.93095 1527.0673 259.26669 1526.9922 258.59766 C 1526.9171 257.92862 1526.8509 257.25611 1526.793 256.57812 C 1526.6772 255.22216 1526.5951 253.8475 1526.5469 252.45117 C 1526.4843 250.63672 1526.472 248.64568 1526.502 246.90039 C 1526.5319 245.15511 1526.6047 243.65432 1526.7129 242.82031 L 1527.1035 239.78711 L 1530.1699 241.74023 C 1531.6954 242.7115 1533.2884 243.5726 1534.9316 244.32031 C 1535.7532 244.69417 1536.5862 245.03967 1537.4316 245.35742 C 1539.1225 245.99293 1540.8575 246.51556 1542.6211 246.92578 C 1545.2665 247.54111 1547.9782 247.90262 1550.7031 248.00781 C 1553.428 248.113 1556.1679 247.96159 1558.8711 247.55273 C 1559.7722 247.41645 1560.6674 247.25228 1561.5586 247.05859 C 1565.1233 246.28384 1568.5952 245.04861 1571.8516 243.34961 C 1573.0774 242.71006 1574.2712 242.00056 1575.4297 241.22852 C 1576.0089 240.84249 1576.5802 240.44209 1577.1406 240.02539 C 1578.2614 239.19199 1579.3434 238.29789 1580.3809 237.35156 C 1581.9371 235.93207 1583.3936 234.39275 1584.7324 232.75586 C 1586.0712 231.11897 1587.2916 229.38447 1588.377 227.57422 C 1588.7388 226.9708 1589.085 226.35965 1589.416 225.74023 C 1590.4089 223.88198 1591.2596 221.95534 1591.9512 219.98242 C 1592.1817 219.32478 1592.3955 218.66126 1592.5898 217.99414 C 1592.8177 217.21225 1593.0218 216.42816 1593.2031 215.64062 C 1593.3844 214.85309 1593.5426 214.06308 1593.6777 213.27148 C 1594.083 210.89671 1594.2812 208.5057 1594.2754 206.12305 C 1594.2735 205.32883 1594.2482 204.53605 1594.2012 203.74414 C 1594.1071 202.16032 1593.9233 200.58264 1593.6504 199.01758 C 1593.241 196.66999 1592.6316 194.3516 1591.8262 192.08203 C 1590.7522 189.05594 1589.3291 186.11668 1587.5664 183.31836 C 1587.1257 182.61878 1586.6647 181.92942 1586.1816 181.24805 C 1585.0025 179.58483 1584.2031 178.12571 1584.4062 178.00586 C 1584.6094 177.88598 1586.4253 177.49221 1588.4414 177.13086 C 1589.7655 176.89353 1591.5925 176.72253 1593.6797 176.61719 C 1595.6248 176.51901 1597.8018 176.48359 1600 176.49609 L 1600 162.69922 z M 200.47656 176.49414 C 205.20028 176.53804 209.98477 176.83131 212.87891 177.35742 C 241.42316 182.54633 264.50253 204.14127 271.45703 232.16797 C 273.00361 238.40078 273.51698 242.86053 273.51367 250.01562 C 273.50667 266.457 268.65007 280.99691 258.76953 294.15625 C 243.68082 314.25219 219.2252 325.26111 194.06055 323.28516 C 168.87857 321.3079 146.06079 306.00349 134.52344 283.35156 C 129.4567 273.40372 126.93228 263.62176 126.54688 252.45117 C 126.42167 248.82226 126.49695 244.48832 126.71289 242.82031 L 127.10352 239.78711 L 130.16992 241.74023 C 142.3735 249.51037 158.82601 250.14563 171.85156 243.34961 C 181.65796 238.23318 189.47995 228.66801 192.58984 217.99414 C 196.23474 205.48394 193.91019 192.14994 186.18164 181.24805 C 185.00254 179.58483 184.20307 178.12571 184.40625 178.00586 C 184.60942 177.88598 186.42534 177.49221 188.44141 177.13086 C 191.08959 176.65621 195.75286 176.45029 200.47656 176.49414 z M 400.47656 176.49414 C 405.20028 176.53804 409.98477 176.83131 412.87891 177.35742 C 441.42316 182.54633 464.50253 204.14127 471.45703 232.16797 C 473.00361 238.40078 473.51698 242.86053 473.51367 250.01562 C 473.50667 266.457 468.65007 280.99691 458.76953 294.15625 C 443.68082 314.25219 419.2252 325.26111 394.06055 323.28516 C 368.87857 321.3079 346.06079 306.00349 334.52344 283.35156 C 329.4567 273.40372 326.93228 263.62176 326.54688 252.45117 C 326.42167 248.82226 326.49695 244.48832 326.71289 242.82031 L 327.10352 239.78711 L 330.16992 241.74023 C 342.3735 249.51037 358.82601 250.14563 371.85156 243.34961 C 381.65796 238.23318 389.47995 228.66801 392.58984 217.99414 C 396.23474 205.48394 393.91019 192.14994 386.18164 181.24805 C 385.00254 179.58483 384.20307 178.12571 384.40625 178.00586 C 384.60942 177.88598 386.42534 177.49221 388.44141 177.13086 C 391.08959 176.65621 395.75286 176.45029 400.47656 176.49414 z M 600.47656 176.49414 C 605.20028 176.53804 609.98477 176.83131 612.87891 177.35742 C 641.42316 182.54633 664.50253 204.14127 671.45703 232.16797 C 673.00361 238.40078 673.51698 242.86053 673.51367 250.01562 C 673.50667 266.457 668.65007 280.99691 658.76953 294.15625 C 643.68082 314.25219 619.2252 325.26111 594.06055 323.28516 C 568.87857 321.3079 546.06079 306.00349 534.52344 283.35156 C 529.4567 273.40372 526.93228 263.62176 526.54688 252.45117 C 526.42168 248.82226 526.49695 244.48832 526.71289 242.82031 L 527.10352 239.78711 L 530.16992 241.74023 C 542.3735 249.51037 558.82601 250.14563 571.85156 243.34961 C 581.65796 238.23318 589.47995 228.66801 592.58984 217.99414 C 596.23474 205.48394 593.91019 192.14994 586.18164 181.24805 C 585.00254 179.58483 584.20307 178.12571 584.40625 178.00586 C 584.60942 177.88598 586.42534 177.49221 588.44141 177.13086 C 591.08959 176.65621 595.75286 176.45029 600.47656 176.49414 z M 800.47656 176.49414 C 805.20028 176.53804 809.98477 176.83131 812.87891 177.35742 C 841.42316 182.54633 864.50253 204.14127 871.45703 232.16797 C 873.00361 238.40078 873.51698 242.86053 873.51367 250.01562 C 873.50667 266.457 868.65007 280.99691 858.76953 294.15625 C 843.68082 314.25219 819.2252 325.26111 794.06055 323.28516 C 768.87857 321.3079 746.0608 306.00349 734.52344 283.35156 C 729.45671 273.40372 726.93228 263.62176 726.54688 252.45117 C 726.42168 248.82226 726.49695 244.48832 726.71289 242.82031 L 727.10352 239.78711 L 730.16992 241.74023 C 742.3735 249.51037 758.82601 250.14563 771.85156 243.34961 C 781.65796 238.23318 789.47995 228.66801 792.58984 217.99414 C 796.23473 205.48394 793.9102 192.14994 786.18164 181.24805 C 785.00255 179.58483 784.20307 178.12571 784.40625 178.00586 C 784.60942 177.88598 786.42534 177.49221 788.44141 177.13086 C 791.08959 176.65621 795.75286 176.45029 800.47656 176.49414 z M 1000.4766 176.49414 C 1005.2004 176.53804 1009.9848 176.83131 1012.8789 177.35742 C 1041.4231 182.54633 1064.5025 204.14127 1071.457 232.16797 C 1073.0036 238.40078 1073.517 242.86053 1073.5137 250.01562 C 1073.5037 266.457 1068.65 280.99691 1058.7695 294.15625 C 1043.6808 314.25219 1019.2252 325.26111 994.06055 323.28516 C 968.87861 321.3079 946.06083 306.00349 934.52344 283.35156 C 929.45672 273.40372 926.9323 263.62176 926.54688 252.45117 C 926.42169 248.82226 926.49685 244.48832 926.71289 242.82031 L 927.10352 239.78711 L 930.16992 241.74023 C 942.3735 249.51037 958.82605 250.14563 971.85156 243.34961 C 981.65797 238.23318 989.47996 228.66801 992.58984 217.99414 C 996.23479 205.48394 993.91022 192.14994 986.18164 181.24805 C 985.00256 179.58483 984.2031 178.12571 984.40625 178.00586 C 984.60948 177.88598 986.42531 177.49221 988.44141 177.13086 C 991.08957 176.65621 995.75289 176.45029 1000.4766 176.49414 z M 1200.4766 176.49414 C 1205.2004 176.53804 1209.9848 176.83131 1212.8789 177.35742 C 1241.4231 182.54633 1264.5025 204.14127 1271.457 232.16797 C 1273.0036 238.40078 1273.517 242.86053 1273.5137 250.01562 C 1273.5037 266.457 1268.65 280.99691 1258.7695 294.15625 C 1243.6808 314.25219 1219.2252 325.26111 1194.0605 323.28516 C 1168.8786 321.3079 1146.0608 306.00349 1134.5234 283.35156 C 1129.4567 273.40372 1126.9323 263.62176 1126.5469 252.45117 C 1126.4217 248.82226 1126.4965 244.48832 1126.7129 242.82031 L 1127.1035 239.78711 L 1130.1699 241.74023 C 1142.3734 249.51037 1158.8261 250.14563 1171.8516 243.34961 C 1181.658 238.23318 1189.4799 228.66801 1192.5898 217.99414 C 1196.2348 205.48394 1193.9101 192.14994 1186.1816 181.24805 C 1185.0025 179.58483 1184.2032 178.12571 1184.4062 178.00586 C 1184.6094 177.88598 1186.4253 177.49221 1188.4414 177.13086 C 1191.0896 176.65621 1195.7529 176.45029 1200.4766 176.49414 z M 1400.4766 176.49414 C 1405.2004 176.53804 1409.9848 176.83131 1412.8789 177.35742 C 1441.4231 182.54633 1464.5025 204.14127 1471.457 232.16797 C 1473.0036 238.40078 1473.517 242.86053 1473.5137 250.01562 C 1473.5037 266.457 1468.65 280.99691 1458.7695 294.15625 C 1443.6808 314.25219 1419.2252 325.26111 1394.0605 323.28516 C 1368.8786 321.3079 1346.0608 306.00349 1334.5234 283.35156 C 1329.4567 273.40372 1326.9323 263.62176 1326.5469 252.45117 C 1326.4217 248.82226 1326.4965 244.48832 1326.7129 242.82031 L 1327.1035 239.78711 L 1330.1699 241.74023 C 1342.3734 249.51037 1358.8261 250.14563 1371.8516 243.34961 C 1381.658 238.23318 1389.4799 228.66801 1392.5898 217.99414 C 1396.2348 205.48394 1393.9101 192.14994 1386.1816 181.24805 C 1385.0025 179.58483 1384.2031 178.12571 1384.4062 178.00586 C 1384.6094 177.88598 1386.4253 177.49221 1388.4414 177.13086 C 1391.0896 176.65621 1395.7529 176.45029 1400.4766 176.49414 z M 0 362.69922 L 0 376.49609 C 0.16048822 376.49701 0.31585626 376.49265 0.4765625 376.49414 C 5.2002782 376.53804 9.9847632 376.83131 12.878906 377.35742 C 41.423152 382.54633 64.502538 404.14127 71.457031 432.16797 C 73.003612 438.40078 73.516981 442.86053 73.513672 450.01562 C 73.506672 466.457 68.650066 480.99691 58.769531 494.15625 C 44.871411 512.66649 23.026035 523.45704 0 523.50195 L 0 537.30078 A 87.299744 87.299736 0 0 0 87.300781 450 A 87.299744 87.299736 0 0 0 0 362.69922 z M 200 362.69922 A 87.299744 87.299736 0 0 0 112.69922 450 A 87.299744 87.299736 0 0 0 200 537.30078 A 87.299744 87.299736 0 0 0 287.30078 450 A 87.299744 87.299736 0 0 0 200 362.69922 z M 400 362.69922 A 87.299744 87.299736 0 0 0 312.69922 450 A 87.299744 87.299736 0 0 0 400 537.30078 A 87.299744 87.299736 0 0 0 487.30078 450 A 87.299744 87.299736 0 0 0 400 362.69922 z M 600 362.69922 A 87.299744 87.299736 0 0 0 512.69922 450 A 87.299744 87.299736 0 0 0 600 537.30078 A 87.299744 87.299736 0 0 0 687.30078 450 A 87.299744 87.299736 0 0 0 600 362.69922 z M 800 362.69922 A 87.299744 87.299736 0 0 0 712.69922 450 A 87.299744 87.299736 0 0 0 800 537.30078 A 87.299744 87.299736 0 0 0 887.30078 450 A 87.299744 87.299736 0 0 0 800 362.69922 z M 1000 362.69922 A 87.299744 87.299736 0 0 0 912.69922 450 A 87.299744 87.299736 0 0 0 1000 537.30078 A 87.299744 87.299736 0 0 0 1087.3008 450 A 87.299744 87.299736 0 0 0 1000 362.69922 z M 1200 362.69922 A 87.299744 87.299736 0 0 0 1112.6992 450 A 87.299744 87.299736 0 0 0 1200 537.30078 A 87.299744 87.299736 0 0 0 1287.3008 450 A 87.299744 87.299736 0 0 0 1200 362.69922 z M 1400 362.69922 A 87.299744 87.299736 0 0 0 1312.6992 450 A 87.299744 87.299736 0 0 0 1400 537.30078 A 87.299744 87.299736 0 0 0 1487.3008 450 A 87.299744 87.299736 0 0 0 1400 362.69922 z M 1600 362.69922 A 87.299744 87.299736 0 0 0 1591.2852 363.13672 A 87.299744 87.299736 0 0 0 1574.2012 366.59961 A 87.299744 87.299736 0 0 0 1537.375 389.17773 A 87.299744 87.299736 0 0 0 1531.6152 395.73242 A 87.299744 87.299736 0 0 0 1518.6328 418.36523 A 87.299744 87.299736 0 0 0 1512.918 443.82422 A 87.299744 87.299736 0 0 0 1512.6992 450 A 87.299744 87.299736 0 0 0 1514.4395 467.34375 A 87.299744 87.299736 0 0 0 1519.5918 483.99609 A 87.299744 87.299736 0 0 0 1523.3867 491.85352 A 87.299744 87.299736 0 0 0 1533.2285 506.24023 A 87.299744 87.299736 0 0 0 1576.6465 534.11914 A 87.299744 87.299736 0 0 0 1593.8242 537.08203 A 87.299744 87.299736 0 0 0 1600 537.30078 L 1600 523.50195 C 1598.0275 523.5058 1596.0462 523.44107 1594.0605 523.28516 C 1590.9128 523.038 1587.8026 522.58165 1584.7461 521.92969 C 1582.4537 521.44072 1580.1926 520.84189 1577.9688 520.13672 C 1576.4862 519.6666 1575.0209 519.14849 1573.5742 518.58594 C 1572.1275 518.02338 1570.6994 517.41575 1569.293 516.76367 C 1567.8865 516.11159 1566.5005 515.41641 1565.1387 514.67773 C 1564.4577 514.3084 1563.7823 513.92755 1563.1133 513.53711 C 1561.7753 512.75623 1560.4626 511.93342 1559.1758 511.07031 C 1558.5324 510.63876 1557.8954 510.19765 1557.2656 509.74609 C 1556.6358 509.29453 1556.0122 508.83253 1555.3965 508.36133 C 1554.7808 507.89013 1554.1733 507.4104 1553.5723 506.91992 C 1552.9713 506.42944 1552.3787 505.92931 1551.793 505.41992 C 1550.0357 503.89174 1548.3467 502.27776 1546.7363 500.58594 C 1546.1995 500.022 1545.6717 499.45053 1545.1523 498.86914 C 1544.1135 497.70636 1543.1104 496.50775 1542.1445 495.27734 C 1541.6616 494.66214 1541.1885 494.03976 1540.7246 493.4082 C 1539.7968 492.14508 1538.907 490.8498 1538.0586 489.52344 C 1537.6344 488.86026 1537.2199 488.18821 1536.8164 487.50977 C 1536.4129 486.83132 1536.021 486.14647 1535.6387 485.45312 C 1535.2564 484.75978 1534.884 484.05944 1534.5234 483.35156 C 1533.8901 482.10808 1533.2969 480.86634 1532.7422 479.625 C 1532.4648 479.00433 1532.1974 478.38299 1531.9395 477.76172 C 1530.9076 475.27664 1530.0287 472.78484 1529.2988 470.25977 C 1528.9339 468.99723 1528.6062 467.72696 1528.3145 466.44531 C 1527.2932 461.95956 1526.7155 457.3383 1526.5469 452.45117 C 1526.4217 448.82226 1526.4965 444.48832 1526.7129 442.82031 L 1527.1035 439.78711 L 1530.1699 441.74023 C 1532.4581 443.19714 1534.8954 444.40416 1537.4316 445.35742 C 1538.2771 445.67518 1539.1345 445.96506 1540 446.22656 C 1541.731 446.74957 1543.4983 447.15989 1545.2871 447.45703 C 1551.5478 448.49704 1558.0702 448.14929 1564.2129 446.39062 C 1565.9679 445.88815 1567.6931 445.27065 1569.3711 444.53711 C 1570.2101 444.17034 1571.0375 443.77436 1571.8516 443.34961 C 1572.4645 443.02983 1573.0693 442.69356 1573.666 442.33984 C 1574.8595 441.63241 1576.0198 440.8588 1577.1406 440.02539 C 1578.2614 439.19199 1579.3434 438.29789 1580.3809 437.35156 C 1581.9371 435.93207 1583.3936 434.39275 1584.7324 432.75586 C 1585.1787 432.21023 1585.6118 431.65441 1586.0312 431.08789 C 1587.2896 429.38832 1588.4231 427.59849 1589.416 425.74023 C 1589.747 425.12082 1590.0625 424.49316 1590.3613 423.85938 C 1590.6602 423.22559 1590.9417 422.58598 1591.207 421.93945 C 1591.4724 421.29292 1591.7207 420.64006 1591.9512 419.98242 C 1592.1817 419.32478 1592.3955 418.66126 1592.5898 417.99414 C 1592.8177 417.21225 1593.0218 416.42816 1593.2031 415.64062 C 1593.3844 414.85309 1593.5426 414.06308 1593.6777 413.27148 C 1594.4883 408.52193 1594.4691 403.71275 1593.6504 399.01758 C 1593.5139 398.23505 1593.3546 397.45514 1593.1738 396.67969 C 1592.9931 395.90424 1592.7912 395.13397 1592.5664 394.36719 C 1592.1169 392.83362 1591.579 391.31943 1590.9551 389.83008 C 1590.6431 389.0854 1590.3102 388.34647 1589.9551 387.61523 C 1589.2448 386.15277 1588.4478 384.71752 1587.5664 383.31836 C 1587.1257 382.61878 1586.6647 381.92942 1586.1816 381.24805 C 1585.5921 380.41644 1585.097 379.63634 1584.7754 379.04883 C 1584.6146 378.75507 1584.4983 378.5077 1584.4336 378.32812 C 1584.3689 378.14855 1584.3555 378.03582 1584.4062 378.00586 C 1584.6094 377.88598 1586.4253 377.49221 1588.4414 377.13086 C 1589.1035 377.0122 1589.8921 376.90959 1590.7754 376.82422 C 1592.5421 376.65347 1594.6891 376.54893 1596.9746 376.50781 C 1597.9619 376.49005 1598.9812 376.4903 1600 376.49609 L 1600 362.69922 z M 200.47656 376.49414 C 205.20028 376.53804 209.98477 376.83131 212.87891 377.35742 C 241.42316 382.54633 264.50253 404.14127 271.45703 432.16797 C 273.00361 438.40078 273.51698 442.86053 273.51367 450.01562 C 273.50667 466.457 268.65007 480.99691 258.76953 494.15625 C 243.68082 514.25219 219.2252 525.26111 194.06055 523.28516 C 168.87857 521.3079 146.06079 506.00349 134.52344 483.35156 C 129.4567 473.40372 126.93228 463.62176 126.54688 452.45117 C 126.42167 448.82226 126.49695 444.48832 126.71289 442.82031 L 127.10352 439.78711 L 130.16992 441.74023 C 142.3735 449.51037 158.82601 450.14563 171.85156 443.34961 C 181.65796 438.23318 189.47995 428.66801 192.58984 417.99414 C 196.23474 405.48394 193.91019 392.14994 186.18164 381.24805 C 185.00254 379.58483 184.20307 378.12571 184.40625 378.00586 C 184.60942 377.88598 186.42534 377.49221 188.44141 377.13086 C 191.08959 376.65621 195.75286 376.45029 200.47656 376.49414 z M 400.47656 376.49414 C 405.20028 376.53804 409.98477 376.83131 412.87891 377.35742 C 441.42316 382.54633 464.50253 404.14127 471.45703 432.16797 C 473.00361 438.40078 473.51698 442.86053 473.51367 450.01562 C 473.50667 466.457 468.65007 480.99691 458.76953 494.15625 C 443.68082 514.25219 419.2252 525.26111 394.06055 523.28516 C 368.87857 521.3079 346.06079 506.00349 334.52344 483.35156 C 329.4567 473.40372 326.93228 463.62176 326.54688 452.45117 C 326.42167 448.82226 326.49695 444.48832 326.71289 442.82031 L 327.10352 439.78711 L 330.16992 441.74023 C 342.3735 449.51037 358.82601 450.14563 371.85156 443.34961 C 381.65796 438.23318 389.47995 428.66801 392.58984 417.99414 C 396.23474 405.48394 393.91019 392.14994 386.18164 381.24805 C 385.00254 379.58483 384.20307 378.12571 384.40625 378.00586 C 384.60942 377.88598 386.42534 377.49221 388.44141 377.13086 C 391.08959 376.65621 395.75286 376.45029 400.47656 376.49414 z M 600.47656 376.49414 C 605.20028 376.53804 609.98477 376.83131 612.87891 377.35742 C 641.42316 382.54633 664.50253 404.14127 671.45703 432.16797 C 673.00361 438.40078 673.51698 442.86053 673.51367 450.01562 C 673.50667 466.457 668.65007 480.99691 658.76953 494.15625 C 643.68082 514.25219 619.2252 525.26111 594.06055 523.28516 C 568.87857 521.3079 546.06079 506.00349 534.52344 483.35156 C 529.4567 473.40372 526.93228 463.62176 526.54688 452.45117 C 526.42168 448.82226 526.49695 444.48832 526.71289 442.82031 L 527.10352 439.78711 L 530.16992 441.74023 C 542.3735 449.51037 558.82601 450.14563 571.85156 443.34961 C 581.65796 438.23318 589.47995 428.66801 592.58984 417.99414 C 596.23474 405.48394 593.91019 392.14994 586.18164 381.24805 C 585.00254 379.58483 584.20307 378.12571 584.40625 378.00586 C 584.60942 377.88598 586.42534 377.49221 588.44141 377.13086 C 591.08959 376.65621 595.75286 376.45029 600.47656 376.49414 z M 800.47656 376.49414 C 805.20028 376.53804 809.98477 376.83131 812.87891 377.35742 C 841.42316 382.54633 864.50253 404.14127 871.45703 432.16797 C 873.00361 438.40078 873.51698 442.86053 873.51367 450.01562 C 873.50667 466.457 868.65007 480.99691 858.76953 494.15625 C 843.68082 514.25219 819.2252 525.26111 794.06055 523.28516 C 768.87857 521.3079 746.0608 506.00349 734.52344 483.35156 C 729.45671 473.40372 726.93228 463.62176 726.54688 452.45117 C 726.42168 448.82226 726.49695 444.48832 726.71289 442.82031 L 727.10352 439.78711 L 730.16992 441.74023 C 742.3735 449.51037 758.82601 450.14563 771.85156 443.34961 C 781.65796 438.23318 789.47995 428.66801 792.58984 417.99414 C 796.23473 405.48394 793.9102 392.14994 786.18164 381.24805 C 785.00255 379.58483 784.20307 378.12571 784.40625 378.00586 C 784.60942 377.88598 786.42534 377.49221 788.44141 377.13086 C 791.08959 376.65621 795.75286 376.45029 800.47656 376.49414 z M 1000.4766 376.49414 C 1005.2004 376.53804 1009.9848 376.83131 1012.8789 377.35742 C 1041.4231 382.54633 1064.5025 404.14127 1071.457 432.16797 C 1073.0036 438.40078 1073.517 442.86053 1073.5137 450.01562 C 1073.5037 466.457 1068.65 480.99691 1058.7695 494.15625 C 1043.6808 514.25219 1019.2252 525.26111 994.06055 523.28516 C 968.87861 521.3079 946.06083 506.00349 934.52344 483.35156 C 929.45672 473.40372 926.9323 463.62176 926.54688 452.45117 C 926.42169 448.82226 926.49685 444.48832 926.71289 442.82031 L 927.10352 439.78711 L 930.16992 441.74023 C 942.3735 449.51037 958.82605 450.14563 971.85156 443.34961 C 981.65797 438.23318 989.47996 428.66801 992.58984 417.99414 C 996.23479 405.48394 993.91022 392.14994 986.18164 381.24805 C 985.00256 379.58483 984.2031 378.12571 984.40625 378.00586 C 984.60948 377.88598 986.42531 377.49221 988.44141 377.13086 C 991.08957 376.65621 995.75289 376.45029 1000.4766 376.49414 z M 1200.4766 376.49414 C 1205.2004 376.53804 1209.9848 376.83131 1212.8789 377.35742 C 1241.4231 382.54633 1264.5025 404.14127 1271.457 432.16797 C 1273.0036 438.40078 1273.517 442.86053 1273.5137 450.01562 C 1273.5037 466.457 1268.65 480.99691 1258.7695 494.15625 C 1243.6808 514.25219 1219.2252 525.26111 1194.0605 523.28516 C 1168.8786 521.3079 1146.0608 506.00349 1134.5234 483.35156 C 1129.4567 473.40372 1126.9323 463.62176 1126.5469 452.45117 C 1126.4217 448.82226 1126.4965 444.48832 1126.7129 442.82031 L 1127.1035 439.78711 L 1130.1699 441.74023 C 1142.3734 449.51037 1158.8261 450.14563 1171.8516 443.34961 C 1181.658 438.23318 1189.4799 428.66801 1192.5898 417.99414 C 1196.2348 405.48394 1193.9101 392.14994 1186.1816 381.24805 C 1185.0025 379.58483 1184.2032 378.12571 1184.4062 378.00586 C 1184.6094 377.88598 1186.4253 377.49221 1188.4414 377.13086 C 1191.0896 376.65621 1195.7529 376.45029 1200.4766 376.49414 z M 1400.4766 376.49414 C 1405.2004 376.53804 1409.9848 376.83131 1412.8789 377.35742 C 1441.4231 382.54633 1464.5025 404.14127 1471.457 432.16797 C 1473.0036 438.40078 1473.517 442.86053 1473.5137 450.01562 C 1473.5037 466.457 1468.65 480.99691 1458.7695 494.15625 C 1443.6808 514.25219 1419.2252 525.26111 1394.0605 523.28516 C 1368.8786 521.3079 1346.0608 506.00349 1334.5234 483.35156 C 1329.4567 473.40372 1326.9323 463.62176 1326.5469 452.45117 C 1326.4217 448.82226 1326.4965 444.48832 1326.7129 442.82031 L 1327.1035 439.78711 L 1330.1699 441.74023 C 1342.3734 449.51037 1358.8261 450.14563 1371.8516 443.34961 C 1381.658 438.23318 1389.4799 428.66801 1392.5898 417.99414 C 1396.2348 405.48394 1393.9101 392.14994 1386.1816 381.24805 C 1385.0025 379.58483 1384.2031 378.12571 1384.4062 378.00586 C 1384.6094 377.88598 1386.4253 377.49221 1388.4414 377.13086 C 1391.0896 376.65621 1395.7529 376.45029 1400.4766 376.49414 z M 0 562.69922 L 0 576.49609 C 0.16048822 576.49701 0.31585626 576.49265 0.4765625 576.49414 C 5.2002782 576.53804 9.9847632 576.83131 12.878906 577.35742 C 41.423152 582.54633 64.502538 604.14127 71.457031 632.16797 C 73.003612 638.40078 73.516981 642.86053 73.513672 650.01562 C 73.506672 666.457 68.650066 680.99691 58.769531 694.15625 C 44.871411 712.66649 23.026035 723.45704 0 723.50195 L 0 737.30078 A 87.299744 87.299736 0 0 0 87.300781 650 A 87.299744 87.299736 0 0 0 0 562.69922 z M 200 562.69922 A 87.299744 87.299736 0 0 0 112.69922 650 A 87.299744 87.299736 0 0 0 200 737.30078 A 87.299744 87.299736 0 0 0 287.30078 650 A 87.299744 87.299736 0 0 0 200 562.69922 z M 400 562.69922 A 87.299744 87.299736 0 0 0 312.69922 650 A 87.299744 87.299736 0 0 0 400 737.30078 A 87.299744 87.299736 0 0 0 487.30078 650 A 87.299744 87.299736 0 0 0 400 562.69922 z M 600 562.69922 A 87.299744 87.299736 0 0 0 512.69922 650 A 87.299744 87.299736 0 0 0 600 737.30078 A 87.299744 87.299736 0 0 0 687.30078 650 A 87.299744 87.299736 0 0 0 600 562.69922 z M 800 562.69922 A 87.299744 87.299736 0 0 0 712.69922 650 A 87.299744 87.299736 0 0 0 800 737.30078 A 87.299744 87.299736 0 0 0 887.30078 650 A 87.299744 87.299736 0 0 0 800 562.69922 z M 1000 562.69922 A 87.299744 87.299736 0 0 0 912.69922 650 A 87.299744 87.299736 0 0 0 1000 737.30078 A 87.299744 87.299736 0 0 0 1087.3008 650 A 87.299744 87.299736 0 0 0 1000 562.69922 z M 1200 562.69922 A 87.299744 87.299736 0 0 0 1112.6992 650 A 87.299744 87.299736 0 0 0 1200 737.30078 A 87.299744 87.299736 0 0 0 1287.3008 650 A 87.299744 87.299736 0 0 0 1200 562.69922 z M 1400 562.69922 A 87.299744 87.299736 0 0 0 1312.6992 650 A 87.299744 87.299736 0 0 0 1400 737.30078 A 87.299744 87.299736 0 0 0 1487.3008 650 A 87.299744 87.299736 0 0 0 1400 562.69922 z M 1600 562.69922 A 87.299744 87.299736 0 0 0 1582.6562 564.43945 A 87.299744 87.299736 0 0 0 1574.2012 566.59961 A 87.299744 87.299736 0 0 0 1566.0039 569.5918 A 87.299744 87.299736 0 0 0 1550.707 577.94727 A 87.299744 87.299736 0 0 0 1537.375 589.17773 A 87.299744 87.299736 0 0 0 1526.5391 602.83203 A 87.299744 87.299736 0 0 0 1522.1973 610.40039 A 87.299744 87.299736 0 0 0 1512.918 643.82422 A 87.299744 87.299736 0 0 0 1512.6992 650 A 87.299744 87.299736 0 0 0 1513.1367 658.71484 A 87.299744 87.299736 0 0 0 1514.4395 667.34375 A 87.299744 87.299736 0 0 0 1516.5996 675.79883 A 87.299744 87.299736 0 0 0 1523.3867 691.85352 A 87.299744 87.299736 0 0 0 1533.2285 706.24023 A 87.299744 87.299736 0 0 0 1539.1777 712.625 A 87.299744 87.299736 0 0 0 1568.3652 731.36719 A 87.299744 87.299736 0 0 0 1576.6465 734.11914 A 87.299744 87.299736 0 0 0 1593.8242 737.08203 A 87.299744 87.299736 0 0 0 1600 737.30078 L 1600 723.50195 C 1598.0275 723.5058 1596.0462 723.44107 1594.0605 723.28516 C 1593.2736 723.22337 1592.4891 723.14818 1591.707 723.06055 C 1590.1429 722.88527 1588.5901 722.65929 1587.0488 722.38281 C 1586.2782 722.24458 1585.5102 722.09268 1584.7461 721.92969 C 1583.2179 721.60371 1581.704 721.22944 1580.2051 720.80664 C 1579.4556 720.59524 1578.71 720.37178 1577.9688 720.13672 C 1577.2275 719.90166 1576.4904 719.65484 1575.7578 719.39648 C 1574.2926 718.87978 1572.8451 718.31667 1571.418 717.70898 C 1570.7044 717.40514 1569.9962 717.08971 1569.293 716.76367 C 1567.8865 716.11159 1566.5005 715.41641 1565.1387 714.67773 C 1564.4577 714.3084 1563.7823 713.92755 1563.1133 713.53711 C 1562.4443 713.14667 1561.7815 712.74712 1561.125 712.33594 C 1560.4685 711.92476 1559.8192 711.50186 1559.1758 711.07031 C 1557.2455 709.77566 1555.3752 708.39136 1553.5723 706.91992 C 1551.1683 704.958 1548.8835 702.8417 1546.7363 700.58594 C 1546.1995 700.022 1545.6717 699.45053 1545.1523 698.86914 C 1543.5942 697.12496 1542.1163 695.30288 1540.7246 693.4082 C 1539.3329 691.51352 1538.027 689.54509 1536.8164 687.50977 C 1536.4129 686.83132 1536.021 686.14647 1535.6387 685.45312 C 1535.2564 684.75978 1534.884 684.05944 1534.5234 683.35156 C 1533.8901 682.10808 1533.2969 680.86634 1532.7422 679.625 C 1532.4648 679.00433 1532.1974 678.38299 1531.9395 677.76172 C 1531.6815 677.14045 1531.4322 676.51912 1531.1934 675.89648 C 1530.9546 675.27385 1530.7257 674.65014 1530.5059 674.02539 C 1530.286 673.40064 1530.076 672.77412 1529.875 672.14648 C 1529.674 671.51885 1529.4813 670.89103 1529.2988 670.25977 C 1528.9339 668.99723 1528.6062 667.72696 1528.3145 666.44531 C 1528.1686 665.80449 1528.0322 665.16041 1527.9043 664.51367 C 1527.5206 662.57346 1527.2175 660.60476 1526.9922 658.59766 C 1526.9171 657.92862 1526.8509 657.25611 1526.793 656.57812 C 1526.7351 655.90014 1526.6854 655.21699 1526.6445 654.5293 C 1526.6036 653.8416 1526.571 653.14933 1526.5469 652.45117 C 1526.5156 651.54394 1526.4975 650.591 1526.4902 649.64844 C 1526.483 648.70587 1526.487 647.77303 1526.502 646.90039 C 1526.5319 645.15511 1526.6047 643.65432 1526.7129 642.82031 L 1527.1035 639.78711 L 1530.1699 641.74023 C 1531.6954 642.7115 1533.2884 643.5726 1534.9316 644.32031 C 1537.3964 645.44188 1539.9757 646.31045 1542.6211 646.92578 C 1543.5029 647.13089 1544.3927 647.30846 1545.2871 647.45703 C 1549.7591 648.19989 1554.3657 648.23415 1558.8711 647.55273 C 1559.7722 647.41645 1560.6674 647.25228 1561.5586 647.05859 C 1564.2321 646.47753 1566.8541 645.63742 1569.3711 644.53711 C 1570.2101 644.17034 1571.0375 643.77436 1571.8516 643.34961 C 1574.3032 642.0705 1576.63 640.51347 1578.791 638.73047 C 1579.8715 637.83897 1580.9105 636.89048 1581.9023 635.89258 C 1584.3819 633.39782 1586.568 630.59131 1588.377 627.57422 C 1588.7388 626.9708 1589.085 626.35965 1589.416 625.74023 C 1590.7399 623.26256 1591.8124 620.66261 1592.5898 617.99414 C 1592.8177 617.21225 1593.0218 616.42816 1593.2031 615.64062 C 1593.5657 614.06555 1593.8354 612.48069 1594.0137 610.89258 C 1594.2811 608.5104 1594.3423 606.11988 1594.2012 603.74414 C 1594.1541 602.95223 1594.086 602.16302 1593.9941 601.375 C 1593.9023 600.58698 1593.7868 599.80011 1593.6504 599.01758 C 1593.5139 598.23505 1593.3546 597.45514 1593.1738 596.67969 C 1592.8123 595.12879 1592.3632 593.59508 1591.8262 592.08203 C 1591.0207 589.81246 1590.0203 587.59197 1588.8262 585.44336 C 1588.0301 584.01096 1587.1477 582.61078 1586.1816 581.24805 C 1585.5921 580.41644 1585.097 579.63634 1584.7754 579.04883 C 1584.6146 578.75507 1584.4983 578.5077 1584.4336 578.32812 C 1584.3689 578.14855 1584.3555 578.03582 1584.4062 578.00586 C 1584.5078 577.94592 1585.0129 577.81694 1585.7441 577.6582 C 1586.4754 577.49947 1587.4334 577.31154 1588.4414 577.13086 C 1589.7655 576.89353 1591.5925 576.72253 1593.6797 576.61719 C 1594.7233 576.56452 1595.8318 576.52837 1596.9746 576.50781 C 1597.9619 576.49005 1598.9812 576.4903 1600 576.49609 L 1600 562.69922 z M 200.47656 576.49414 C 205.20028 576.53804 209.98477 576.83131 212.87891 577.35742 C 241.42316 582.54633 264.50253 604.14127 271.45703 632.16797 C 273.00361 638.40078 273.51698 642.86053 273.51367 650.01562 C 273.50667 666.457 268.65007 680.99691 258.76953 694.15625 C 243.68082 714.25218 219.2252 725.26111 194.06055 723.28516 C 168.87857 721.30791 146.06079 706.00349 134.52344 683.35156 C 129.4567 673.40372 126.93228 663.62177 126.54688 652.45117 C 126.42167 648.82226 126.49695 644.48833 126.71289 642.82031 L 127.10352 639.78711 L 130.16992 641.74023 C 142.3735 649.51036 158.82601 650.14563 171.85156 643.34961 C 181.65796 638.23318 189.47995 628.66801 192.58984 617.99414 C 196.23474 605.48394 193.91019 592.14993 186.18164 581.24805 C 185.00254 579.58483 184.20307 578.12571 184.40625 578.00586 C 184.60942 577.88598 186.42534 577.49222 188.44141 577.13086 C 191.08959 576.65621 195.75286 576.45028 200.47656 576.49414 z M 400.47656 576.49414 C 405.20028 576.53804 409.98477 576.83131 412.87891 577.35742 C 441.42316 582.54633 464.50253 604.14127 471.45703 632.16797 C 473.00361 638.40078 473.51698 642.86053 473.51367 650.01562 C 473.50667 666.457 468.65007 680.99691 458.76953 694.15625 C 443.68082 714.25218 419.2252 725.26111 394.06055 723.28516 C 368.87857 721.30791 346.06079 706.00349 334.52344 683.35156 C 329.4567 673.40372 326.93228 663.62177 326.54688 652.45117 C 326.42167 648.82226 326.49695 644.48833 326.71289 642.82031 L 327.10352 639.78711 L 330.16992 641.74023 C 342.3735 649.51036 358.82601 650.14563 371.85156 643.34961 C 381.65796 638.23318 389.47995 628.66801 392.58984 617.99414 C 396.23474 605.48394 393.91019 592.14993 386.18164 581.24805 C 385.00254 579.58483 384.20307 578.12571 384.40625 578.00586 C 384.60942 577.88598 386.42534 577.49222 388.44141 577.13086 C 391.08959 576.65621 395.75286 576.45028 400.47656 576.49414 z M 600.47656 576.49414 C 605.20028 576.53804 609.98477 576.83131 612.87891 577.35742 C 641.42316 582.54633 664.50253 604.14127 671.45703 632.16797 C 673.00361 638.40078 673.51698 642.86053 673.51367 650.01562 C 673.50667 666.457 668.65007 680.99691 658.76953 694.15625 C 643.68082 714.25218 619.2252 725.26111 594.06055 723.28516 C 568.87857 721.30791 546.06079 706.00349 534.52344 683.35156 C 529.4567 673.40372 526.93228 663.62177 526.54688 652.45117 C 526.42168 648.82226 526.49695 644.48833 526.71289 642.82031 L 527.10352 639.78711 L 530.16992 641.74023 C 542.3735 649.51036 558.82601 650.14563 571.85156 643.34961 C 581.65796 638.23318 589.47995 628.66801 592.58984 617.99414 C 596.23474 605.48394 593.91019 592.14993 586.18164 581.24805 C 585.00254 579.58483 584.20307 578.12571 584.40625 578.00586 C 584.60942 577.88598 586.42534 577.49222 588.44141 577.13086 C 591.08959 576.65621 595.75286 576.45028 600.47656 576.49414 z M 800.47656 576.49414 C 805.20028 576.53804 809.98477 576.83131 812.87891 577.35742 C 841.42316 582.54633 864.50253 604.14127 871.45703 632.16797 C 873.00361 638.40078 873.51698 642.86053 873.51367 650.01562 C 873.50667 666.457 868.65007 680.99691 858.76953 694.15625 C 843.68082 714.25218 819.2252 725.26111 794.06055 723.28516 C 768.87857 721.30791 746.0608 706.00349 734.52344 683.35156 C 729.45671 673.40372 726.93228 663.62177 726.54688 652.45117 C 726.42168 648.82226 726.49695 644.48833 726.71289 642.82031 L 727.10352 639.78711 L 730.16992 641.74023 C 742.3735 649.51036 758.82601 650.14563 771.85156 643.34961 C 781.65796 638.23318 789.47995 628.66801 792.58984 617.99414 C 796.23473 605.48394 793.9102 592.14993 786.18164 581.24805 C 785.00255 579.58483 784.20307 578.12571 784.40625 578.00586 C 784.60942 577.88598 786.42534 577.49222 788.44141 577.13086 C 791.08959 576.65621 795.75286 576.45028 800.47656 576.49414 z M 1000.4766 576.49414 C 1005.2004 576.53804 1009.9848 576.83131 1012.8789 577.35742 C 1041.4231 582.54633 1064.5025 604.14127 1071.457 632.16797 C 1073.0036 638.40078 1073.517 642.86053 1073.5137 650.01562 C 1073.5037 666.457 1068.65 680.99691 1058.7695 694.15625 C 1043.6808 714.25218 1019.2252 725.26111 994.06055 723.28516 C 968.87861 721.30791 946.06083 706.00349 934.52344 683.35156 C 929.45672 673.40372 926.9323 663.62177 926.54688 652.45117 C 926.42169 648.82226 926.49685 644.48833 926.71289 642.82031 L 927.10352 639.78711 L 930.16992 641.74023 C 942.3735 649.51036 958.82605 650.14563 971.85156 643.34961 C 981.65797 638.23318 989.47996 628.66801 992.58984 617.99414 C 996.23479 605.48394 993.91022 592.14993 986.18164 581.24805 C 985.00256 579.58483 984.2031 578.12571 984.40625 578.00586 C 984.60948 577.88598 986.42531 577.49222 988.44141 577.13086 C 991.08957 576.65621 995.75289 576.45028 1000.4766 576.49414 z M 1200.4766 576.49414 C 1205.2004 576.53804 1209.9848 576.83131 1212.8789 577.35742 C 1241.4231 582.54633 1264.5025 604.14127 1271.457 632.16797 C 1273.0036 638.40078 1273.517 642.86053 1273.5137 650.01562 C 1273.5037 666.457 1268.65 680.99691 1258.7695 694.15625 C 1243.6808 714.25218 1219.2252 725.26111 1194.0605 723.28516 C 1168.8786 721.30791 1146.0608 706.00349 1134.5234 683.35156 C 1129.4567 673.40372 1126.9323 663.62177 1126.5469 652.45117 C 1126.4217 648.82226 1126.4965 644.48833 1126.7129 642.82031 L 1127.1035 639.78711 L 1130.1699 641.74023 C 1142.3734 649.51036 1158.8261 650.14563 1171.8516 643.34961 C 1181.658 638.23318 1189.4799 628.66801 1192.5898 617.99414 C 1196.2348 605.48394 1193.9101 592.14993 1186.1816 581.24805 C 1185.0025 579.58483 1184.2032 578.12571 1184.4062 578.00586 C 1184.6094 577.88598 1186.4253 577.49222 1188.4414 577.13086 C 1191.0896 576.65621 1195.7529 576.45028 1200.4766 576.49414 z M 1400.4766 576.49414 C 1405.2004 576.53804 1409.9848 576.83131 1412.8789 577.35742 C 1441.4231 582.54633 1464.5025 604.14127 1471.457 632.16797 C 1473.0036 638.40078 1473.517 642.86053 1473.5137 650.01562 C 1473.5037 666.457 1468.65 680.99691 1458.7695 694.15625 C 1443.6808 714.25218 1419.2252 725.26111 1394.0605 723.28516 C 1368.8786 721.30791 1346.0608 706.00349 1334.5234 683.35156 C 1329.4567 673.40372 1326.9323 663.62177 1326.5469 652.45117 C 1326.4217 648.82226 1326.4965 644.48833 1326.7129 642.82031 L 1327.1035 639.78711 L 1330.1699 641.74023 C 1342.3734 649.51036 1358.8261 650.14563 1371.8516 643.34961 C 1381.658 638.23318 1389.4799 628.66801 1392.5898 617.99414 C 1396.2348 605.48394 1393.9101 592.14993 1386.1816 581.24805 C 1385.0025 579.58483 1384.2031 578.12571 1384.4062 578.00586 C 1384.6094 577.88598 1386.4253 577.49222 1388.4414 577.13086 C 1391.0896 576.65621 1395.7529 576.45028 1400.4766 576.49414 z M 0 762.69922 L 0 776.49609 C 0.16048822 776.49701 0.31585626 776.49265 0.4765625 776.49414 C 5.2002782 776.53814 9.9847632 776.83142 12.878906 777.35742 C 41.423152 782.54642 64.502538 804.14127 71.457031 832.16797 C 73.003612 838.40077 73.516981 842.86052 73.513672 850.01562 C 73.506672 866.45692 68.650066 880.99695 58.769531 894.15625 C 57.234352 896.20088 55.596907 898.14763 53.876953 900 L 71.435547 900 A 87.299744 87.299736 0 0 0 87.300781 850 A 87.299744 87.299736 0 0 0 0 762.69922 z M 200 762.69922 A 87.299744 87.299736 0 0 0 112.69922 850 A 87.299744 87.299736 0 0 0 128.48438 900 L 146.19531 900 C 141.59829 895.06514 137.64522 889.48073 134.52344 883.35156 C 129.4567 873.40366 126.93228 863.62177 126.54688 852.45117 C 126.42167 848.82227 126.49695 844.48831 126.71289 842.82031 L 127.10352 839.78711 L 130.16992 841.74023 C 142.3735 849.51044 158.82601 850.14572 171.85156 843.34961 C 181.65796 838.23331 189.47995 828.66804 192.58984 817.99414 C 196.23474 805.48394 193.91019 792.14985 186.18164 781.24805 C 185.00254 779.58485 184.20307 778.12566 184.40625 778.00586 C 184.60942 777.88596 186.42534 777.49226 188.44141 777.13086 C 191.08959 776.65626 195.75286 776.45024 200.47656 776.49414 C 205.20028 776.53814 209.98477 776.83142 212.87891 777.35742 C 241.42316 782.54642 264.50253 804.14127 271.45703 832.16797 C 273.00361 838.40077 273.51698 842.86052 273.51367 850.01562 C 273.50667 866.45692 268.65007 880.99695 258.76953 894.15625 C 257.23435 896.20088 255.59691 898.14763 253.87695 900 L 271.43555 900 A 87.299744 87.299736 0 0 0 287.30078 850 A 87.299744 87.299736 0 0 0 200 762.69922 z M 400 762.69922 A 87.299744 87.299736 0 0 0 312.69922 850 A 87.299744 87.299736 0 0 0 328.48438 900 L 346.19531 900 C 341.59829 895.06514 337.64522 889.48073 334.52344 883.35156 C 329.4567 873.40366 326.93228 863.62177 326.54688 852.45117 C 326.42167 848.82227 326.49695 844.48831 326.71289 842.82031 L 327.10352 839.78711 L 330.16992 841.74023 C 342.3735 849.51044 358.82601 850.14572 371.85156 843.34961 C 381.65796 838.23331 389.47995 828.66804 392.58984 817.99414 C 396.23474 805.48394 393.91019 792.14985 386.18164 781.24805 C 385.00254 779.58485 384.20307 778.12566 384.40625 778.00586 C 384.60942 777.88596 386.42534 777.49226 388.44141 777.13086 C 391.08959 776.65626 395.75286 776.45024 400.47656 776.49414 C 405.20028 776.53814 409.98477 776.83142 412.87891 777.35742 C 441.42316 782.54642 464.50253 804.14127 471.45703 832.16797 C 473.00361 838.40077 473.51698 842.86052 473.51367 850.01562 C 473.50667 866.45692 468.65007 880.99695 458.76953 894.15625 C 457.23435 896.20088 455.59691 898.14763 453.87695 900 L 471.43555 900 A 87.299744 87.299736 0 0 0 487.30078 850 A 87.299744 87.299736 0 0 0 400 762.69922 z M 600 762.69922 A 87.299744 87.299736 0 0 0 512.69922 850 A 87.299744 87.299736 0 0 0 528.48438 900 L 546.19531 900 C 541.59829 895.06514 537.64522 889.48073 534.52344 883.35156 C 529.4567 873.40366 526.93228 863.62177 526.54688 852.45117 C 526.42168 848.82227 526.49695 844.48831 526.71289 842.82031 L 527.10352 839.78711 L 530.16992 841.74023 C 542.3735 849.51044 558.82601 850.14572 571.85156 843.34961 C 581.65796 838.23331 589.47995 828.66804 592.58984 817.99414 C 596.23474 805.48394 593.91019 792.14985 586.18164 781.24805 C 585.00254 779.58485 584.20307 778.12566 584.40625 778.00586 C 584.60942 777.88596 586.42534 777.49226 588.44141 777.13086 C 591.08959 776.65626 595.75286 776.45024 600.47656 776.49414 C 605.20028 776.53814 609.98477 776.83142 612.87891 777.35742 C 641.42316 782.54642 664.50253 804.14127 671.45703 832.16797 C 673.00361 838.40077 673.51698 842.86052 673.51367 850.01562 C 673.50667 866.45692 668.65007 880.99695 658.76953 894.15625 C 657.23435 896.20088 655.59691 898.14763 653.87695 900 L 671.43555 900 A 87.299744 87.299736 0 0 0 687.30078 850 A 87.299744 87.299736 0 0 0 600 762.69922 z M 800 762.69922 A 87.299744 87.299736 0 0 0 712.69922 850 A 87.299744 87.299736 0 0 0 728.48438 900 L 746.19531 900 C 741.59829 895.06514 737.64523 889.48073 734.52344 883.35156 C 729.45671 873.40366 726.93228 863.62177 726.54688 852.45117 C 726.42168 848.82227 726.49695 844.48831 726.71289 842.82031 L 727.10352 839.78711 L 730.16992 841.74023 C 742.3735 849.51044 758.82601 850.14572 771.85156 843.34961 C 781.65796 838.23331 789.47995 828.66804 792.58984 817.99414 C 796.23473 805.48394 793.9102 792.14985 786.18164 781.24805 C 785.00255 779.58485 784.20307 778.12566 784.40625 778.00586 C 784.60942 777.88596 786.42534 777.49226 788.44141 777.13086 C 791.08959 776.65626 795.75286 776.45024 800.47656 776.49414 C 805.20028 776.53814 809.98477 776.83142 812.87891 777.35742 C 841.42316 782.54642 864.50253 804.14127 871.45703 832.16797 C 873.00361 838.40077 873.51698 842.86052 873.51367 850.01562 C 873.50667 866.45692 868.65007 880.99695 858.76953 894.15625 C 857.23435 896.20088 855.59691 898.14763 853.87695 900 L 871.43555 900 A 87.299744 87.299736 0 0 0 887.30078 850 A 87.299744 87.299736 0 0 0 800 762.69922 z M 1000 762.69922 A 87.299744 87.299736 0 0 0 912.69922 850 A 87.299744 87.299736 0 0 0 928.48438 900 L 946.19531 900 C 941.59828 895.06514 937.64523 889.48073 934.52344 883.35156 C 929.45672 873.40366 926.9323 863.62177 926.54688 852.45117 C 926.42169 848.82227 926.49685 844.48831 926.71289 842.82031 L 927.10352 839.78711 L 930.16992 841.74023 C 942.3735 849.51044 958.82605 850.14572 971.85156 843.34961 C 981.65797 838.23331 989.47996 828.66804 992.58984 817.99414 C 996.23479 805.48394 993.91022 792.14985 986.18164 781.24805 C 985.00256 779.58485 984.2031 778.12566 984.40625 778.00586 C 984.60948 777.88596 986.42531 777.49226 988.44141 777.13086 C 991.08957 776.65626 995.75289 776.45024 1000.4766 776.49414 C 1005.2004 776.53814 1009.9848 776.83142 1012.8789 777.35742 C 1041.4231 782.54642 1064.5025 804.14127 1071.457 832.16797 C 1073.0036 838.40077 1073.517 842.86052 1073.5137 850.01562 C 1073.5037 866.45692 1068.65 880.99695 1058.7695 894.15625 C 1057.2344 896.20088 1055.5969 898.14763 1053.877 900 L 1071.4355 900 A 87.299744 87.299736 0 0 0 1087.3008 850 A 87.299744 87.299736 0 0 0 1000 762.69922 z M 1200 762.69922 A 87.299744 87.299736 0 0 0 1112.6992 850 A 87.299744 87.299736 0 0 0 1128.4844 900 L 1146.1953 900 C 1141.5983 895.06514 1137.6452 889.48073 1134.5234 883.35156 C 1129.4567 873.40366 1126.9323 863.62177 1126.5469 852.45117 C 1126.4217 848.82227 1126.4965 844.48831 1126.7129 842.82031 L 1127.1035 839.78711 L 1130.1699 841.74023 C 1142.3734 849.51044 1158.8261 850.14572 1171.8516 843.34961 C 1181.658 838.23331 1189.4799 828.66804 1192.5898 817.99414 C 1196.2348 805.48394 1193.9101 792.14985 1186.1816 781.24805 C 1185.0025 779.58485 1184.2032 778.12566 1184.4062 778.00586 C 1184.6094 777.88596 1186.4253 777.49226 1188.4414 777.13086 C 1191.0896 776.65626 1195.7529 776.45024 1200.4766 776.49414 C 1205.2004 776.53814 1209.9848 776.83142 1212.8789 777.35742 C 1241.4231 782.54642 1264.5025 804.14127 1271.457 832.16797 C 1273.0036 838.40077 1273.517 842.86052 1273.5137 850.01562 C 1273.5037 866.45692 1268.65 880.99695 1258.7695 894.15625 C 1257.2344 896.20088 1255.5969 898.14763 1253.877 900 L 1271.4355 900 A 87.299744 87.299736 0 0 0 1287.3008 850 A 87.299744 87.299736 0 0 0 1200 762.69922 z M 1400 762.69922 A 87.299744 87.299736 0 0 0 1312.6992 850 A 87.299744 87.299736 0 0 0 1328.4844 900 L 1346.1953 900 C 1341.5983 895.06514 1337.6452 889.48073 1334.5234 883.35156 C 1329.4567 873.40366 1326.9323 863.62177 1326.5469 852.45117 C 1326.4217 848.82227 1326.4965 844.48831 1326.7129 842.82031 L 1327.1035 839.78711 L 1330.1699 841.74023 C 1342.3734 849.51044 1358.8261 850.14572 1371.8516 843.34961 C 1381.658 838.23331 1389.4799 828.66804 1392.5898 817.99414 C 1396.2348 805.48394 1393.9101 792.14985 1386.1816 781.24805 C 1385.0025 779.58485 1384.2031 778.12566 1384.4062 778.00586 C 1384.6094 777.88596 1386.4253 777.49226 1388.4414 777.13086 C 1391.0896 776.65626 1395.7529 776.45024 1400.4766 776.49414 C 1405.2004 776.53814 1409.9848 776.83142 1412.8789 777.35742 C 1441.4231 782.54642 1464.5025 804.14127 1471.457 832.16797 C 1473.0036 838.40077 1473.517 842.86052 1473.5137 850.01562 C 1473.5037 866.45692 1468.65 880.99695 1458.7695 894.15625 C 1457.2344 896.20088 1455.5969 898.14763 1453.877 900 L 1471.4355 900 A 87.299744 87.299736 0 0 0 1487.3008 850 A 87.299744 87.299736 0 0 0 1400 762.69922 z M 1600 762.69922 A 87.299744 87.299736 0 0 0 1558.1465 773.38672 A 87.299744 87.299736 0 0 0 1550.707 777.94727 A 87.299744 87.299736 0 0 0 1513.9707 835.16211 A 87.299744 87.299736 0 0 0 1512.918 843.82422 A 87.299744 87.299736 0 0 0 1512.6992 850 A 87.299744 87.299736 0 0 0 1516.5996 875.79883 A 87.299744 87.299736 0 0 0 1523.3867 891.85352 A 87.299744 87.299736 0 0 0 1527.9473 899.29297 A 87.299744 87.299736 0 0 0 1528.4844 900 L 1546.1953 900 C 1545.3147 899.05471 1544.4528 898.09224 1543.6211 897.09961 C 1543.1196 896.50113 1542.6275 895.89255 1542.1445 895.27734 C 1541.1786 894.04694 1540.25 892.78534 1539.3613 891.49023 C 1538.917 890.84268 1538.4828 890.18662 1538.0586 889.52344 C 1536.786 887.5339 1535.6051 885.47518 1534.5234 883.35156 C 1533.8901 882.10807 1533.2969 880.86634 1532.7422 879.625 C 1532.4648 879.00433 1532.1974 878.38299 1531.9395 877.76172 C 1531.4235 876.51917 1530.9455 875.2749 1530.5059 874.02539 C 1530.286 873.40064 1530.076 872.77607 1529.875 872.14844 C 1529.4729 870.89317 1529.1075 869.63071 1528.7793 868.35938 C 1528.6152 867.72371 1528.4603 867.08614 1528.3145 866.44531 C 1528.0227 865.16367 1527.7671 863.86932 1527.5469 862.5625 C 1526.9963 859.29545 1526.6673 855.94198 1526.5469 852.45117 C 1526.4843 850.63672 1526.472 848.64568 1526.502 846.90039 C 1526.5169 846.02775 1526.5427 845.21699 1526.5781 844.51953 C 1526.6136 843.82208 1526.6588 843.23731 1526.7129 842.82031 L 1527.1035 839.78711 L 1530.1699 841.74023 C 1530.9326 842.22587 1531.7118 842.68346 1532.5059 843.11328 C 1534.888 844.40275 1537.4035 845.44205 1540 846.22656 C 1540.8655 846.48807 1541.7393 846.72067 1542.6211 846.92578 C 1543.5029 847.13089 1544.3927 847.30846 1545.2871 847.45703 C 1546.1815 847.6056 1547.0812 847.72452 1547.9844 847.81641 C 1548.8876 847.90829 1549.7948 847.97275 1550.7031 848.00781 C 1553.428 848.113 1556.1679 847.9616 1558.8711 847.55273 C 1561.5743 847.14387 1564.2399 846.47759 1566.8203 845.55078 C 1567.6804 845.24185 1568.5321 844.90388 1569.3711 844.53711 C 1570.2101 844.17034 1571.0375 843.77437 1571.8516 843.34961 C 1573.0774 842.71007 1574.2712 842.00055 1575.4297 841.22852 C 1577.7466 839.68444 1579.9187 837.88838 1581.9023 835.89258 C 1582.3983 835.39363 1582.8818 834.88248 1583.3535 834.35938 C 1583.8253 833.83627 1584.2862 833.30149 1584.7324 832.75586 C 1585.1787 832.21023 1585.6118 831.65442 1586.0312 831.08789 C 1586.8701 829.95484 1587.6534 828.78106 1588.377 827.57422 C 1589.1005 826.36738 1589.7637 825.12696 1590.3613 823.85938 C 1591.2578 821.958 1592.0067 819.9955 1592.5898 817.99414 C 1592.8177 817.21225 1593.0218 816.42816 1593.2031 815.64062 C 1593.9284 812.49048 1594.2831 809.29992 1594.2754 806.12305 C 1594.2696 803.74039 1594.0597 801.36516 1593.6504 799.01758 C 1593.5139 798.23505 1593.3546 797.45514 1593.1738 796.67969 C 1592.9931 795.90424 1592.7912 795.13397 1592.5664 794.36719 C 1592.3417 793.60041 1592.0947 792.83855 1591.8262 792.08203 C 1591.5577 791.32551 1591.267 790.57475 1590.9551 789.83008 C 1590.3312 788.34074 1589.6223 786.87576 1588.8262 785.44336 C 1588.0301 784.01096 1587.1477 782.61077 1586.1816 781.24805 C 1585.5921 780.41645 1585.097 779.63635 1584.7754 779.04883 C 1584.5342 778.60818 1584.3911 778.27512 1584.377 778.11133 C 1584.3723 778.05673 1584.3809 778.02083 1584.4062 778.00586 C 1584.5078 777.94591 1585.0129 777.81694 1585.7441 777.6582 C 1586.4754 777.49947 1587.4334 777.31156 1588.4414 777.13086 C 1590.9995 776.67241 1595.4432 776.47013 1600 776.49609 L 1600 762.69922 z "
       transform="translate(0,152.36218)"
       id="path4379" />
    <g
       transform="translate(800.79064,0)"
       id="g5301">
      <circle
         r="86.727783"
         cy="802.27411"
         cx="397.8465"
         id="path5299"
         style="opacity:1;fill:#6758c4;fill-opacity:1;stroke:none" />
      <path
         style="fill:#ffffff;fill-opacity:1;stroke:none"
         d="m 400,715.06215 a 87.299744,87.299736 0 0 0 -87.3,87.29999 87.299744,87.299736 0 0 0 87.3,87.30005 87.299744,87.299736 0 0 0 87.3,-87.30005 87.299744,87.299736 0 0 0 -87.3,-87.29999 z m 0.47601,13.79358 c 4.72372,0.0439 9.50885,0.33696 12.40299,0.86307 28.54425,5.18891 51.62372,26.78394 58.57822,54.81064 1.54658,6.23281 2.06032,10.69322 2.05701,17.84831 -0.007,16.44138 -4.86508,30.98228 -14.74562,44.14162 -15.08871,20.09593 -39.54247,31.1035 -64.70712,29.12755 -25.18198,-1.97725 -48.00069,-17.28199 -59.53804,-39.93392 -5.06674,-9.94784 -7.59141,-19.72994 -7.97681,-30.90054 -0.1252,-3.62891 -0.0505,-7.96158 0.16544,-9.6296 l 0.39173,-3.03401 3.06681,1.95401 c 12.20358,7.77013 28.65483,8.4051 41.68038,1.60908 9.8064,-5.11643 17.62885,-14.68144 20.73874,-25.35531 3.6449,-12.5102 1.32027,-25.84509 -6.40828,-36.74697 -1.1791,-1.66322 -1.97771,-3.12175 -1.77453,-3.2416 0.20317,-0.11988 2.01837,-0.51421 4.03444,-0.87557 2.64818,-0.47465 7.31094,-0.68062 12.03464,-0.63676 z"
         id="path4220-6"
         inkscape:connector-curvature="0" />
    </g>
  </g>
</svg>
